<?xml version="1.0" encoding="UTF-8"?>
<svg id="Layer_2" data-name="Layer 2" xmlns="http://www.w3.org/2000/svg" viewBox="0 0 370.99 175.29">
  <defs>
    <style>
      .cls-1 {
        font-size: 22.46px;
      }

      .cls-1, .cls-2 {
        font-family: Futura-CondensedBold, 'Futura Condensed';
        font-weight: 700;
      }

      .cls-3 {
        fill: #fff;
      }

      .cls-3, .cls-4 {
        stroke: #000;
        stroke-miterlimit: 10;
      }

      .cls-4 {
        fill: gray;
      }

      .cls-2 {
        font-size: 8.75px;
      }
    </style>
  </defs>
  <g id="Layer_1-2" data-name="Layer 1">
    <rect class="cls-4" x="14.68" y="64.44" width="344.15" height="35.56"/>
    <rect class="cls-4" x="6.15" y="94.88" width="353.27" height="79.15"/>
    <polygon class="cls-4" points="15.24 .06 6.39 72.17 6.39 172.1 15.24 99.98 15.24 .06"/>
    <polygon class="cls-4" points="367.68 3.19 358.83 75.3 358.83 175.23 367.68 103.11 367.68 3.19"/>
    <polygon class="cls-4" points="370.44 .52 8.89 .52 .55 84.29 362.1 84.29 370.44 .52"/>
    <rect class="cls-3" x="22.75" y="83.91" width="41.36" height="45.86"/>
    <rect class="cls-3" x="118.54" y="84.29" width="127.16" height="29.69"/>
    <text class="cls-1" transform="translate(166 106.82)"><tspan x="0" y="0">BUS</tspan></text>
    <text class="cls-2" transform="translate(30.49 92.82)"><tspan x="0" y="0">canceled </tspan><tspan x="-5.81" y="10.5">because bus </tspan><tspan x="-4.36" y="21">driver is at </tspan><tspan x="3.77" y="31.5">aka :(</tspan></text>
  </g>
</svg>