<?xml version="1.0" encoding="UTF-8"?>
<svg id="Layer_2" data-name="Layer 2" xmlns="http://www.w3.org/2000/svg" viewBox="0 0 108.3 108.3">
  <defs>
    <style>
      .cls-1 {
        fill: #fff;
      }

      .cls-2 {
        fill: gray;
      }
    </style>
  </defs>
  <g id="Layer_1-2" data-name="Layer 1">
    <circle class="cls-2" cx="54.15" cy="54.15" r="54.15"/>
    <circle class="cls-1" cx="54.15" cy="54.15" r="47.98"/>
    <rect class="cls-2" x="6.17" y="51.98" width="11.67" height="4.34"/>
    <rect class="cls-2" x="90.46" y="50.35" width="11.67" height="4.34"/>
    <rect class="cls-2" x="48.31" y="9.84" width="11.67" height="4.34" transform="translate(66.16 -42.14) rotate(90)"/>
    <rect class="cls-2" x="48.31" y="94.12" width="11.67" height="4.34" transform="translate(150.44 42.14) rotate(90)"/>
    <rect class="cls-2" x="17.67" y="21.34" width="11.67" height="4.34" transform="translate(23.51 -9.74) rotate(45)"/>
    <rect class="cls-2" x="78.96" y="82.62" width="11.67" height="4.34" transform="translate(84.79 -35.12) rotate(45)"/>
    <rect class="cls-2" x="78.96" y="21.34" width="11.67" height="4.34" transform="translate(161.38 -19.82) rotate(135)"/>
    <rect class="cls-2" x="17.67" y="82.62" width="11.67" height="4.34" transform="translate(100.09 128.13) rotate(135)"/>
    <circle cx="54.15" cy="54.15" r="3.38"/>
    <rect x="27.1" y="41.44" width="32.03" height="3.34" transform="translate(43.11 -17.86) rotate(45)"/>
  </g>
</svg>