<?xml version="1.0" encoding="UTF-8"?>
<svg id="Layer_2" data-name="Layer 2" xmlns="http://www.w3.org/2000/svg" viewBox="0 0 63.31 38.69">
  <defs>
    <style>
      .cls-1 {
        fill: #fff;
        stroke: #000;
        stroke-miterlimit: 10;
      }
    </style>
  </defs>
  <g id="Layer_1-2" data-name="Layer 1">
    <rect class="cls-1" x="4.03" y=".5" width="58.78" height="32.75" rx="7.28" ry="7.28"/>
    <path class="cls-1" d="m11.31,33.25c-5.46,5.29-7.28,4.93-7.28,4.93,0,0,7.3-.38,11.27-2.46s3.14-2.47,3.14-2.47h-7.13Z"/>
    <path d="m11.97,7.69c-.28-.69.68-.77,1.12-.61.57.2,1.03.63,1.57.9.84.42,1.72.44,2.52-.07.74-.47,1.25-1.25,2.01-1.69.97-.56,2.11-.24,3.03.27,1.78.99,3,2.81,5.05,3.35,2.28.6,4.48-.51,6.66-1.03,1.75-.41,4.24-.35,5.07,1.55.21.49.91.19.93-.25.11-1.83,2.61-2.11,4-1.99,2.07.18,4.09.55,5.81-.89.66-.55,1.2-1.29,1.96-1.7.95-.51,1.73.08,2.43.72,1.07.96,2.94,2.07,4.05.52.38-.52-.49-1.02-.86-.5-.4.56-1.34.17-1.78-.13-.61-.42-1.07-1.01-1.7-1.4-1.25-.77-2.49-.33-3.5.57-.53.47-1,1.03-1.59,1.44-.78.53-1.69.62-2.6.58-1.54-.07-3.05-.45-4.57-.01-1.35.39-2.54,1.31-2.63,2.8l.93-.25c-.78-1.78-2.83-2.33-4.62-2.24-2.47.12-4.79,1.72-7.29,1.34s-3.79-2.81-5.98-3.69c-1.01-.4-2.16-.51-3.15,0-.88.46-1.42,1.38-2.28,1.85-1.29.7-2.46-.99-3.72-1.13-1.05-.12-2.27.82-1.81,1.96.24.59,1.21.33.96-.27h0Z"/>
    <path d="m12.32,15.99c.38-1.4,1.84-2.28,3.26-2.19,1.63.11,2.38,1.76,3.75,2.4s2.56-.15,3.38-1.24c.43-.57.8-1.21,1.35-1.67.77-.63,1.81-.64,2.74-.46,1.01.19,1.99.54,2.97.85,1.09.34,2.19.68,3.28,1.02,1.96.61,4,1.13,5.9,1.92.83.35,1.65.78,2.31,1.4s.97,1.35,1.46,2.05c.4.57.94,1.09,1.68,1.13.82.04,1.52-.49,1.96-1.14.6-.89.78-1.95,1.65-2.66.82-.66,1.86-1,2.83-1.36,2.44-.91,4.88-1.81,7.31-2.72.6-.22.34-1.19-.27-.96-2.21.82-4.42,1.64-6.63,2.47-1.65.62-3.62,1.14-4.69,2.67-.54.78-.71,2.02-1.56,2.54-.95.59-1.52-.6-1.92-1.28-.89-1.52-2.27-2.45-3.87-3.11-1.98-.81-4.09-1.36-6.14-1.99-1.09-.34-2.19-.68-3.28-1.02-1-.31-2-.67-3.04-.83-.86-.13-1.76-.13-2.58.23-.71.32-1.21.87-1.67,1.48-.42.56-.8,1.25-1.39,1.66-.69.48-1.41.18-2-.3-.68-.55-1.24-1.27-2.03-1.68-.72-.37-1.53-.48-2.33-.37-1.58.23-2.99,1.32-3.42,2.88-.17.62.8.89.96.27h0Z"/>
    <path d="m12.22,23.86c.53-1.44,2.32-1.79,3.65-1.42,1.67.47,2.95,1.74,4.28,2.77,1.21.94,2.5,1.72,4.04,1.93,1.44.2,2.89-.06,4.28-.44,2.98-.82,5.93-2.27,9.08-1.44,1.61.42,3.11,1.03,4.77,1.2,1.44.15,2.91.05,4.32-.26,3.13-.68,6.03-2.42,8.01-4.95.39-.5-.31-1.21-.71-.71-1.87,2.38-4.53,4.01-7.48,4.67-1.49.33-3.05.41-4.56.19-1.72-.25-3.29-1.04-5-1.32-3.09-.51-5.98.91-8.89,1.69-1.45.39-2.99.62-4.47.21-1.7-.48-3-1.77-4.36-2.82s-2.9-2.01-4.63-1.88c-1.46.11-2.8.89-3.31,2.3-.22.61.75.87.96.27h0Z"/>
  </g>
</svg>