<?xml version="1.0" encoding="UTF-8"?>
<svg id="Layer_2" data-name="Layer 2" xmlns="http://www.w3.org/2000/svg" viewBox="0 0 44.92 26.9">
  <defs>
    <style>
      .cls-1 {
        fill: #fff;
        stroke: #000;
        stroke-miterlimit: 10;
      }
    </style>
  </defs>
  <g id="Layer_1-2" data-name="Layer 1">
    <rect class="cls-1" x=".5" y=".5" width="40.4" height="22.51" rx="7.28" ry="7.28" transform="translate(41.4 23.51) rotate(-180)"/>
    <path class="cls-1" d="m35.89,23.01c3.75,3.64,5,3.39,5,3.39,0,0-5.02-.26-7.75-1.69s-2.16-1.7-2.16-1.7h4.9Z"/>
    <path d="m11.18,5.81c.16-1.2,1.54-1.64,2.56-1.7,1.2-.07,2.42.06,3.62.11,2.55.11,5.13.11,7.67.37,1.24.13,2.37.47,3.47,1.06.93.5,1.84,1.08,2.86,1.38,1.51.44,3.43.13,4.22-1.37.3-.57-.56-1.07-.86-.5-.74,1.39-2.62,1.18-3.84.63-.81-.36-1.55-.85-2.35-1.25s-1.67-.68-2.57-.82c-1.97-.32-4.01-.3-6-.38s-4.08-.31-6.11-.23c-1.69.07-3.44.85-3.68,2.7-.08.64.92.63,1,0h0Z"/>
    <path d="m10.42,12.59c1.96-2.29,5.41-3.1,8.19-1.9,1.56.67,2.65,2.04,4.4,2.29,1.9.27,3.9-.32,5.76-.66,2.37-.43,4.74-.86,7.11-1.29.63-.11.36-1.08-.27-.96-2.13.39-4.26.77-6.38,1.16-1.08.2-2.15.39-3.23.59-1.01.18-2.08.35-3.1.14-.95-.2-1.68-.8-2.45-1.35-.64-.45-1.33-.82-2.08-1.07-1.4-.46-2.93-.5-4.36-.18-1.66.36-3.19,1.24-4.3,2.53-.42.49.29,1.2.71.71h0Z"/>
    <path d="m12.55,17.69c3.94.14,7.87.33,11.81.4s7.76-.26,11.62-.62c.64-.06.64-1.06,0-1-3.87.36-7.74.69-11.62.62s-7.88-.26-11.81-.4c-.64-.02-.64.98,0,1h0Z"/>
  </g>
</svg>