<?xml version="1.0" encoding="UTF-8"?>
<svg id="Layer_2" data-name="Layer 2" xmlns="http://www.w3.org/2000/svg" viewBox="0 0 61.57 61.57">
  <defs>
    <style>
      .cls-1, .cls-2 {
        fill: #999;
      }

      .cls-2 {
        stroke: #000;
        stroke-miterlimit: 10;
      }
    </style>
  </defs>
  <g id="Layer_1-2" data-name="Layer 1">
    <g>
      <path class="cls-1" d="m30.78,55.3c-13.52,0-24.52-11-24.52-24.52S17.27,6.27,30.78,6.27s24.52,11,24.52,24.52-11,24.52-24.52,24.52Zm0-42.07c-9.68,0-17.55,7.87-17.55,17.55s7.87,17.55,17.55,17.55,17.55-7.87,17.55-17.55-7.87-17.55-17.55-17.55Z"/>
      <path d="m30.78,6.77c13.24,0,24.02,10.77,24.02,24.02s-10.77,24.02-24.02,24.02S6.77,44.03,6.77,30.78,17.54,6.77,30.78,6.77m0,42.07c9.95,0,18.05-8.1,18.05-18.05s-8.1-18.05-18.05-18.05S12.73,20.83,12.73,30.78s8.1,18.05,18.05,18.05m0-43.07c-13.82,0-25.02,11.2-25.02,25.02s11.2,25.02,25.02,25.02,25.02-11.2,25.02-25.02S44.6,5.77,30.78,5.77h0Zm0,42.07c-9.42,0-17.05-7.63-17.05-17.05s7.63-17.05,17.05-17.05,17.05,7.63,17.05,17.05-7.63,17.05-17.05,17.05h0Z"/>
    </g>
    <polygon class="cls-2" points="35.75 .5 25.83 .5 24.11 11.04 37.46 11.04 35.75 .5"/>
    <polygon class="cls-2" points="61.07 35.75 61.07 25.83 50.53 24.11 50.53 37.46 61.07 35.75"/>
    <polygon class="cls-2" points="25.82 61.07 35.74 61.07 37.46 50.53 24.11 50.53 25.82 61.07"/>
    <polygon class="cls-2" points=".5 25.82 .5 35.74 11.04 37.46 11.04 24.11 .5 25.82"/>
    <polygon class="cls-2" points="12.91 5.9 5.9 12.91 12.13 21.57 21.57 12.13 12.91 5.9"/>
    <polygon class="cls-2" points="55.67 12.91 48.66 5.9 40 12.13 49.44 21.57 55.67 12.91"/>
    <polygon class="cls-2" points="5.9 48.66 12.91 55.67 21.57 49.44 12.13 40 5.9 48.66"/>
    <polygon class="cls-2" points="48.66 55.67 55.67 48.66 49.44 40 40 49.44 48.66 55.67"/>
  </g>
</svg>