<?xml version="1.0" encoding="UTF-8"?>
<svg id="Layer_2" data-name="Layer 2" xmlns="http://www.w3.org/2000/svg" viewBox="0 0 285.91 172.28">
  <defs>
    <style>
      .cls-1 {
        fill: #8c6239;
      }

      .cls-2 {
        fill: #666;
      }

      .cls-3 {
        fill: #333;
      }

      .cls-4 {
        fill: #a67c52;
      }

      .cls-5 {
        fill: gray;
      }

      .cls-6 {
        fill: #4d4d4d;
      }
    </style>
  </defs>
  <g id="Layer_1-2" data-name="Layer 1">
    <g>
      <rect class="cls-5" y="25.05" width="285.91" height="122.17"/>
      <ellipse class="cls-3" cx="57.95" cy="48.48" rx="23.21" ry="19.15"/>
      <ellipse class="cls-3" cx="37.94" cy="113.27" rx="20.92" ry="17.26"/>
      <ellipse class="cls-3" cx="163.18" cy="119.98" rx="29.17" ry="27.25"/>
      <ellipse class="cls-3" cx="260.91" cy="67.94" rx="21.81" ry="24.79"/>
      <ellipse class="cls-2" cx="37.94" cy="111.27" rx="21.49" ry="16.79"/>
      <path class="cls-2" d="m243.17,147.22c0-6.79-7.19-12.3-16.05-12.3s-16.05,5.51-16.05,12.3"/>
      <ellipse class="cls-2" cx="57.95" cy="44.21" rx="23.21" ry="19.15"/>
      <circle class="cls-2" cx="162.38" cy="118.85" r="28.38"/>
      <ellipse class="cls-2" cx="181.67" cy="38.53" rx="11.61" ry="13.47"/>
      <path class="cls-6" d="m122.75,148.47c-4.2-3.47-6.8-8.25-6.8-13.54,0-10.58,10.39-19.15,23.21-19.15s23.21,8.57,23.21,19.15c0,4.68-2.04,8.97-5.42,12.3"/>
      <ellipse class="cls-6" cx="56.57" cy="70.55" rx="15.96" ry="13.79"/>
      <circle class="cls-6" cx="86.52" cy="118.83" r="13.99"/>
      <ellipse class="cls-6" cx="147.61" cy="44.21" rx="24.63" ry="19.15"/>
      <path class="cls-6" d="m209.25,24.99c-1.72,4.05-2.73,8.93-2.73,14.19,0,14.02,7.15,25.38,15.96,25.38s15.96-11.36,15.96-25.38c0-5.23-1-10.09-2.7-14.13"/>
      <ellipse class="cls-6" cx="224.84" cy="90.85" rx="18.32" ry="13.99"/>
      <ellipse class="cls-6" cx="159.92" cy="86.51" rx="12.32" ry="14.38"/>
      <rect class="cls-4" y="8.85" width="285.91" height="16.2"/>
      <rect class="cls-1" width="285.91" height="8.85"/>
      <rect class="cls-1" x="0" y="147.22" width="285.91" height="8.85"/>
      <rect class="cls-4" y="156.08" width="285.91" height="16.2"/>
      <ellipse class="cls-2" cx="261.12" cy="63.13" rx="21.59" ry="26.03"/>
      <ellipse class="cls-6" cx="260.91" cy="126.03" rx="18.32" ry="13.99"/>
    </g>
  </g>
</svg>