<?xml version="1.0" encoding="UTF-8"?>
<svg id="Layer_2" data-name="Layer 2" xmlns="http://www.w3.org/2000/svg" viewBox="0 0 113.79 49.28">
  <defs>
    <style>
      .cls-1, .cls-2, .cls-3 {
        stroke: #000;
        stroke-miterlimit: 10;
      }

      .cls-2 {
        fill: #0071bc;
      }

      .cls-3 {
        fill: #c1272d;
        font-family: Helvetica-BlackOblique, 'Helvetica .Black';
        font-size: 12px;
        font-style: oblique;
        font-weight: 800;
        stroke-width: .5px;
      }
    </style>
  </defs>
  <g id="Layer_1-2" data-name="Layer 1">
    <circle class="cls-1" cx="32" cy="44.47" r="4.32"/>
    <circle class="cls-1" cx="103.88" cy="44.47" r="4.32"/>
    <circle class="cls-1" cx="49.65" cy="44.47" r="4.32"/>
    <circle class="cls-1" cx="85.58" cy="44.47" r="4.32"/>
    <path class="cls-2" d="m113.17,32.55l-4.31-24.45c-.74-4.2-4.74-7.6-8.94-7.6H25.61c-4.2,0-7,3.4-6.26,7.6l4.31,24.45c.74,4.2,4.74,7.6,8.94,7.6h74.31c4.2,0,7-3.4,6.26-7.6ZM38.85,16.25h-8.86V6.12h8.86v10.13Zm13.22,0h-8.86V6.12h8.86v10.13Zm13.07,0h-8.86V6.12h8.86v10.13Zm13.16,0h-8.86V6.12h8.86v10.13Zm12.81,0h-8.86V6.12h8.86v10.13Zm15.77,7.6h-9.33V6.12h4.67c2.58,0,4.66,2.09,4.66,4.67v13.07Z"/>
    <path d="m.94,30.46c2.02-3.36,6.29-4.81,9.91-3.19,1.63.73,2.95,2.11,4.7,2.58,1.46.39,3.09.11,4.01-1.15.38-.52-.49-1.02-.86-.5-1.15,1.56-3.42.62-4.7-.18-1.61-1.01-3.06-2.01-4.98-2.31-3.57-.55-7.1,1.16-8.95,4.24-.33.55.53,1.06.86.5h0Z"/>
    <path d="m4.41,43.35c2.95-2.47,6.32-5.21,10.42-4.8.91.09,1.8.37,2.58.84.74.45,1.32,1.11,2.08,1.53,1.12.63,3.08.49,3.33-1.07.1-.63-.86-.9-.96-.27-.13.84-1.18.82-1.78.51-.77-.39-1.35-1.07-2.08-1.52-1.4-.88-3.12-1.17-4.75-1.03-3.77.33-6.76,2.77-9.55,5.1-.49.41.22,1.12.71.71h0Z"/>
    <text class="cls-3" transform="translate(40.95 31.73)"><tspan x="0" y="0">BORÅS</tspan></text>
  </g>
</svg>