<?xml version="1.0" encoding="UTF-8"?>
<svg id="Layer_2" data-name="Layer 2" xmlns="http://www.w3.org/2000/svg" viewBox="0 0 77.54 129.34">
  <defs>
    <style>
      .cls-1 {
        fill: #d1d1d2;
      }

      .cls-2 {
        fill: #54c4c9;
      }
    </style>
  </defs>
  <g id="Layer_1-2" data-name="Layer 1">
    <rect class="cls-1" y="24.82" width="77.54" height="104.52" rx="21.28" ry="21.28"/>
    <rect class="cls-1" width="16.06" height="54.37"/>
    <rect class="cls-1" x="61.48" width="16.06" height="54.37"/>
    <polygon class="cls-2" points="38.77 101.76 56.8 91.54 49.91 75.01 27.62 75.01 20.74 91.54 38.77 101.76"/>
    <rect class="cls-2" x="20.74" y="48.4" width="36.05" height="43.14"/>
    <path class="cls-2" d="m23.34,48.94c.6-1.48,2.51-1.38,3.27-.14l1.3-2.26c-1.27-.05-2.55-.1-3.82-.15v3c2.35.07,4.77.31,7.12.2,1.82-.08,3.77-.93,4.1-2.93.17-1.05-.41-1.76-1.45-1.9-2.22-.29-4.14,1.17-4.87,3.19-.58,1.62,1.91,2.61,2.74,1.16.42-.73,1.04-1.28,1.87-1.49.43-.11.94.1,1.3.02.25.23.31.13.17-.31.55.46,1.1.58,1.65.38.53-.05.97-.2,1.52-.1.44.08.72.33,1.1.49.23.27.57.36,1,.25.09-.09.2-.15.32-.16.61.04,1.12.19,1.69.39l-1.1-1.45c-.07.73-.15,1.47-.22,2.2l2.95-.4c-.29-.8-.21-1.65.66-2.02.32-.14.75-.2,1.07,0,.2.07.31.2.33.39.4-.15.4.16,0,.96,1.83.63,2.62-2.27.8-2.89-2.45-.85-4.36,2.35-2.5,4.14s4.67.17,4.7-2.2c.03-2.56-2.82-3.97-5.06-3.34-2.46.69-3.77,3.39-2.9,5.77.59,1.63,2.78,1.3,2.95-.4.07-.73.15-1.47.22-2.2.07-.68-.52-1.25-1.1-1.45-1.55-.53-3.35-.82-4.7.35-1.12.98-1.37,2.64-.42,3.83s2.7,1.25,3.7.1c1.05-1.21.78-3-.35-4.06-2.05-1.92-7.99-2-8.08,1.75-.03,1.49,1.27,2.83,2.82,2.41s2.27-2.19,1.65-3.57c-.72-1.6-2.62-2.1-4.23-1.89-1.88.24-3.48,1.36-4.42,3l2.74,1.16c.31-.87,1.15-1.1,1.98-.99l-1.45-1.9c-.2,1.21-2.66.7-3.54.68-1.6-.05-3.19-.1-4.79-.15-1.93-.06-1.93,2.92,0,3,1.27.05,2.55.1,3.82.15,1.13.04,1.88-1.31,1.3-2.26-2.25-3.63-7.2-2.95-8.75.86-.73,1.79,2.17,2.56,2.89.8h0Z"/>
    <path class="cls-2" d="m47.75,50.36c.14-.25.29-.5.46-.72-.15.2.1-.1.13-.14.08-.09.16-.17.25-.26.1-.1.21-.2.32-.29.07-.06.26-.2.09-.08.23-.17.47-.32.72-.46.13-.07.25-.13.38-.19.24-.12-.05.01.1-.04.25-.09.5-.17.75-.23.14-.03.28-.06.42-.09.44-.08-.28,0,.17-.02.29-.01.57-.02.86,0l-1.5-1.5c.02.09.02.17.02.26,0,.18,0,.17,0-.01-.05.16-.05.17.01,0-.04.08-.08.15-.13.23.1-.13.09-.13-.02,0,.14-.09.13-.09-.01,0-.15.08-.15.08,0,0-.08.02-.17.04-.26.05l1.85,1.05c-.04-.11-.06-.22-.09-.34-.04-.16-.02.19,0-.08,0-.12,0-.23,0-.35.02-.23-.09.31.02-.08.03-.09.05-.18.08-.27.12-.39-.07.11.04-.09.06-.1.11-.2.18-.3-.12.17,0,0,.08-.07.03-.03.26-.22.08-.09.08-.06.16-.1.25-.15.29-.19-.16.01.17-.08.09-.03.19-.05.28-.08.41-.1-.13,0,.11-.01.12,0,.24,0,.36,0-.22,0,0,0,.1.02.12.03.24.06.35.11-.14-.06-.05-.01.03.03.36.2-.08-.1.1.05.09.08.18.16.25.25l-.07-.08c.07.14.09.16.05.07-.03-.08-.03-.07,0,.01.03.11.03.09.01-.07v.13c.04-.16.04-.18.02-.07-.02.06-.12.35-.01.07.05-.13.13-.07,0,0,.12-.07.18-.08.3-.13.12,0,.1,0-.05,0h.15s.08.05.12.07c-.13-.08-.15-.09-.06-.02.07.09.13.26.06.04.03.09.08.16.08.26,0,.04-.11.33-.03.19.08-.16-.08.07-.11.11l-.12.04c.17-.05.17-.05,0,0,.78,0,1.54-.69,1.5-1.5s-.66-1.5-1.5-1.5c-2.01,0-3.51,2.32-2.3,4.08,1.12,1.63,3.62,1.62,4.58-.18.89-1.66.04-3.64-1.58-4.48-1.46-.76-3.34-.67-4.67.31-1.53,1.12-2.23,3.15-1.65,4.97.27.84,1.01,1.17,1.85,1.05,1.53-.23,2.79-1.88,2.58-3.42-.11-.84-.6-1.45-1.5-1.5-2.92-.17-5.82,1.46-7.24,4.01-.39.71-.17,1.64.54,2.05s1.66.17,2.05-.54h0Z"/>
  </g>
</svg>