<?xml version="1.0" encoding="UTF-8"?>
<svg id="Layer_2" data-name="Layer 2" xmlns="http://www.w3.org/2000/svg" viewBox="0 0 215.54 113.19">
  <defs>
    <style>
      .cls-1 {
        fill: #009245;
      }

      .cls-2 {
        fill: #dad300;
      }
    </style>
  </defs>
  <g id="Layer_1-2" data-name="Layer 1">
    <g>
      <rect class="cls-1" x="40.95" width="150.21" height="113.19"/>
      <polygon class="cls-1" points="61.42 0 20.47 0 0 26.68 20.47 53.36 61.42 53.36 81.89 26.68 61.42 0"/>
      <polygon class="cls-1" points="61.42 59.84 20.47 59.84 0 86.51 20.47 113.19 61.42 113.19 81.89 86.51 61.42 59.84"/>
      <polygon class="cls-1" points="195.07 0 154.12 0 133.65 26.68 154.12 53.36 195.07 53.36 215.54 26.68 195.07 0"/>
      <polygon class="cls-1" points="195.07 59.84 154.12 59.84 133.65 86.51 154.12 113.19 195.07 113.19 215.54 86.51 195.07 59.84"/>
      <rect class="cls-1" x="26.68" y="0" width="59.83" height="113.19" transform="translate(113.19 0) rotate(90)"/>
      <rect class="cls-1" x="129.03" y="0" width="59.83" height="113.19" transform="translate(215.54 -102.35) rotate(90)"/>
      <rect class="cls-2" x="44.91" y="4.14" width="141.29" height="104.91"/>
      <polygon class="cls-2" points="64.17 4.15 25.66 4.15 6.4 28.87 25.66 53.6 64.17 53.6 83.43 28.87 64.17 4.15"/>
      <polygon class="cls-2" points="64.17 59.6 25.66 59.6 6.4 84.33 25.66 109.05 64.17 109.05 83.43 84.33 64.17 59.6"/>
      <polygon class="cls-2" points="189.89 4.15 151.37 4.15 132.11 28.87 151.37 53.6 189.89 53.6 209.14 28.87 189.89 4.15"/>
      <polygon class="cls-2" points="189.89 59.6 151.37 59.6 132.11 84.33 151.37 109.05 189.89 109.05 209.14 84.33 189.89 59.6"/>
      <rect class="cls-2" x="31.91" y="3.36" width="55.45" height="106.47" transform="translate(116.23 -3.04) rotate(90)"/>
      <rect class="cls-2" x="128.18" y="3.36" width="55.45" height="106.47" transform="translate(212.5 -99.31) rotate(90)"/>
      <rect class="cls-1" x="47.47" y="7.98" width="135.54" height="97.23"/>
      <polygon class="cls-1" points="65.94 7.99 29 7.99 10.52 30.9 29 53.82 65.94 53.82 84.42 30.9 65.94 7.99"/>
      <polygon class="cls-1" points="65.94 59.38 29 59.38 10.52 82.3 29 105.21 65.94 105.21 84.42 82.3 65.94 59.38"/>
      <polygon class="cls-1" points="186.55 7.99 149.6 7.99 131.12 30.9 149.6 53.82 186.55 53.82 205.02 30.9 186.55 7.99"/>
      <polygon class="cls-1" points="186.55 59.38 149.6 59.38 131.12 82.3 149.6 105.21 186.55 105.21 205.02 82.3 186.55 59.38"/>
      <rect class="cls-1" x="35.89" y="5.53" width="51.39" height="102.14" transform="translate(118.19 -4.99) rotate(90)"/>
      <rect class="cls-1" x="128.26" y="5.53" width="51.39" height="102.14" transform="translate(210.55 -97.36) rotate(90)"/>
    </g>
  </g>
</svg>