<?xml version="1.0" encoding="UTF-8"?>
<svg id="Layer_2" data-name="Layer 2" xmlns="http://www.w3.org/2000/svg" viewBox="0 0 52.31 45.86">
  <defs>
    <style>
      .cls-1 {
        fill: #009245;
      }

      .cls-2 {
        fill: #d1d1d2;
      }

      .cls-3 {
        fill: #dad324;
      }
    </style>
  </defs>
  <g id="Layer_1-2" data-name="Layer 1">
    <g>
      <path class="cls-1" d="m26.15,45.86L4.08,23.79C-1.36,18.35-1.36,9.52,4.08,4.08h0c5.44-5.44,14.27-5.44,19.71,0l22.07,22.07"/>
      <line class="cls-2" x1="45.86" y1="26.15" x2="26.15" y2="45.86"/>
      <path class="cls-1" d="m6.45,26.15L28.52,4.08c5.44-5.44,14.27-5.44,19.71,0h0c5.44,5.44,5.44,14.27,0,19.71l-2.37,2.37"/>
      <path class="cls-3" d="m26.19,42.43L6.31,22.54C1.4,17.63,1.15,9.94,5.73,5.36h0c4.58-4.58,12.28-4.33,17.18.58l19.89,19.89"/>
      <path class="cls-3" d="m9.72,25.82L29.61,5.94c4.9-4.9,12.59-5.16,17.18-.58h0c4.58,4.58,4.33,12.28-.58,17.18l-19.89,19.89"/>
      <path class="cls-1" d="m26.51,39.62L8.53,21.65c-4.43-4.43-4.92-11.13-1.08-14.97h0c3.83-3.83,10.53-3.35,14.97,1.08l17.98,17.98"/>
      <path class="cls-1" d="m12.73,25.74L30.71,7.76c4.43-4.43,11.13-4.92,14.97-1.08h0c3.83,3.83,3.35,10.53-1.08,14.97l-17.98,17.98"/>
    </g>
  </g>
</svg>