<?xml version="1.0" encoding="UTF-8"?>
<svg id="Layer_2" data-name="Layer 2" xmlns="http://www.w3.org/2000/svg" viewBox="0 0 55.05 62.71">
  <defs>
    <style>
      .cls-1 {
        fill: #006837;
      }

      .cls-1, .cls-2, .cls-3 {
        stroke: #000;
        stroke-miterlimit: 10;
      }

      .cls-2 {
        fill: #e99c6d;
      }

      .cls-3 {
        fill: #ed1c24;
      }
    </style>
  </defs>
  <g id="Layer_1-2" data-name="Layer 1">
    <rect class="cls-2" x="26.05" y="6.73" width="2.94" height="8.56"/>
    <path class="cls-3" d="m54.55,36.58c0,14.15-7.98,25.63-17.82,25.63-2.68,0-5.22-.85-7.5-2.38-.79-.53-1.56-1.14-2.28-1.82-.72.69-1.48,1.3-2.26,1.82-2.13,1.44-4.51,2.23-7,2.23C8.2,62.06.5,50.59.5,36.44S8.2,10.81,17.69,10.81c2.58,0,5.03.85,7.22,2.37.77.53,1.51,1.14,2.21,1.83.75-.7,1.53-1.31,2.35-1.83,2.21-1.43,4.67-2.22,7.26-2.22,9.84,0,17.82,11.47,17.82,25.62Z"/>
    <path class="cls-1" d="m27.52,9.82S28.65-.19,34.34.54s3.22.6,3.22.6l-.29,4.01s-.64,2.3-3.8,3.26-5.94,1.41-5.94,1.41Z"/>
  </g>
</svg>