<?xml version="1.0" encoding="UTF-8"?>
<svg id="Layer_2" data-name="Layer 2" xmlns="http://www.w3.org/2000/svg" viewBox="0 0 176.11 258.55">
  <defs>
    <style>
      .cls-1 {
        fill: #006837;
      }

      .cls-2 {
        fill: #117835;
      }

      .cls-3 {
        fill: #603813;
      }

      .cls-4 {
        fill: #502d13;
      }
    </style>
  </defs>
  <g id="Layer_1-2" data-name="Layer 1">
    <rect class="cls-3" x="54.45" y="121.05" width="72.82" height="118.71"/>
    <path class="cls-3" d="m39.76,240.57c6.93-1.36,13.03-5.31,17.3-10.9h-2.59c1.96,3.45-.47,7.35-3.6,9.02-3.75,2.01-8.56,1.93-12.62,1.09l.36,2.74c5.35-2.68,10.69-5.35,16.04-8.03l-2.26-1.3c.37,3.75-4.59,4.93-7.36,5.68-3.59.97-7.28,1.39-11,1.34l.76,2.8c10.52-6.69,22.24-15.16,23.02-28.8h-3c-.3,8.64-3.94,16.94-10.08,23.03l2.36,1.82,3.94-6.18-2.8-.76.64,6.09c.1.98,1.25,2.07,2.26,1.3l3.4-2.62c.65-.5.97-1.28.54-2.05-.36-.64-1.41-1.03-2.05-.54l-3.4,2.62,2.26,1.3-.64-6.09c-.15-1.44-1.95-2.09-2.8-.76l-3.94,6.18c-.93,1.45,1.16,3.01,2.36,1.82,6.7-6.65,10.63-15.72,10.96-25.15.07-1.94-2.89-1.92-3,0-.71,12.42-12.03,20.16-21.54,26.21-1.24.79-.76,2.77.76,2.8,4.58.07,9.19-.57,13.56-1.97,3.68-1.17,8.24-3.45,7.79-8.05-.11-1.16-1.18-1.83-2.26-1.3-5.35,2.68-10.69,5.35-16.04,8.03-1.13.56-.88,2.48.36,2.74,5.17,1.07,11.37,1.07,15.92-1.99,4.01-2.7,6.21-8.08,3.68-12.53-.61-1.07-1.94-.86-2.59,0-3.8,4.97-9.4,8.32-15.51,9.52-1.89.37-1.09,3.26.8,2.89h0Z"/>
    <path class="cls-3" d="m49.01,235.27s-.08-.03-.11-.06c-.12-.08-.07-.04.16.13-.02-.02-.04-.04-.06-.06-.08-.09-.03-.03.14.19-.02-.03-.04-.07-.06-.1-.07-.13-.04-.07.08.19,0-.06-.03-.13-.05-.18.03.3.04.37.03.21,0-.04,0-.08,0-.12,0-.24-.08.4-.01.16s-.21.36-.05.11c.06-.1.01-.04-.15.18.03-.03.05-.06.08-.09-.23.16-.28.2-.15.12l.06-.03c-.27.1-.33.13-.18.09.15-.03.08-.03-.21.02.05,0,.14,0,.19,0-.29-.05-.36-.05-.21-.02.04.01.08.02.12.04-.27-.04-.31-.13-.13-.04.21.11-.32-.27-.06-.04.17.16-.22-.32-.09-.1.12.19-.12-.41-.05-.06l.39-1.46c-.05.05-.11.09-.16.14-.14.12.28-.2.06-.05-.12.08-.24.16-.37.23s-.26.12-.39.2c.34-.2.16-.06.04-.02-.07.02-.14.05-.21.07-.14.04-.28.08-.42.11-.06.01-.16.05-.21.04.09.02.36-.04.1-.02-.14.01-.29.02-.43.01-.12,0-.67-.06-.16,0l1.1,1.45c0-.05-.05-.26-.01-.31-.05.06-.06.41,0,.1.04-.11.03-.1-.02.04-.06.13-.06.15-.01.04.03-.04.23-.33.06-.1s.06-.04.1-.08c.18-.19-.29.18-.05.04.07-.04.14-.08.21-.12.14-.07.09-.05-.14.05.05-.02.1-.04.15-.05.04-.01.29-.06.29-.07-.22.03-.27.03-.15.02.05,0,.1,0,.15-.01.23-.01.47,0,.7.02h.1c.17.03.13.03-.1,0,0-.01.26.04.3.05.2.04.41.07.61.12.16.04.31.08.47.14.32.11-.29-.16-.05-.02.06.04.12.07.19.11.23.13-.25-.25-.09-.07.24.27-.13-.26-.03-.04l-.1-.24s.03.09.04.13c-.02-.27-.04-.34-.04-.21,0,.12,0,.05.03-.21-.07.27.16-.35.02-.04-.06.1-.02.05.12-.14-.03.04-.07.08-.11.12-.19.21.28-.19.05-.04s.34-.08.05-.01c-.06.02-.12.04-.19.05-.16.03-.13.03.11,0,0-.02-.27.01-.3.01-.23,0-.46-.02-.69-.03l1.3,2.26c.65-.94,1.3-1.88,1.95-2.82.45-.65.14-1.69-.54-2.05-.76-.4-1.57-.15-2.05.54-.65.94-1.3,1.88-1.95,2.82-.3.43-.26,1.08,0,1.51.28.48.76.7,1.3.74,1.13.09,2.37-.03,3.18-.93.45-.5.77-1.15.73-1.84-.04-.64-.3-1.26-.77-1.7-.7-.65-1.61-.89-2.52-1.04-1.19-.2-2.36-.26-3.47.3s-1.95,1.78-1.79,3c.05.34.1.62.32.91.18.23.48.5.78.54.99.14,1.98.12,2.94-.22.46-.17.92-.37,1.33-.64.24-.16.47-.34.69-.52.49-.41.66-1.03.5-1.64-.29-1.13-1.35-1.83-2.47-1.91s-2.18.72-2.48,1.8.17,2.54,1.27,3.04c.38.17.74.27,1.16.15.35-.1.73-.36.9-.69.35-.66.22-1.7-.54-2.05h0Z"/>
    <path class="cls-3" d="m67.49,236.65c-1.1,4.35-3.81,8.08-7.64,10.44l2.2,1.69,3.56-13.08c.46-1.7-1.8-2.52-2.74-1.16-2.2,3.19-4.4,6.38-6.59,9.57l2.59,1.51c1.59-2.71,3.17-5.42,4.76-8.13l-2.8-.76c-.15,7.84-7.41,13.75-15.13,12.16v2.89c9.12-1.85,19.58-4.64,23.25-14.27l-2.89-.8c-.99,5.47-4.49,10.21-9.62,12.47-2.59,1.14-5.5,1.61-8.32,1.33-2.05-.2-4.67-1.02-5.26-3.24l-1.85,1.85c8.01,2.27,16.67-1.69,19.98-9.38.76-1.75-1.83-3.28-2.59-1.51-2.79,6.48-9.75,9.93-16.59,8-1.11-.31-2.13.75-1.85,1.85,1.76,6.66,11.48,6.17,16.47,4.33,6.47-2.39,11.28-8.08,12.5-14.89.34-1.91-2.2-2.61-2.89-.8-3.22,8.45-13.32,10.59-21.16,12.18-1.43.29-1.43,2.6,0,2.89,4.66.96,9.51-.12,13.23-3.12s5.61-7.38,5.7-11.94c.03-1.5-2.05-2.03-2.8-.76l-4.76,8.13c-.99,1.69,1.51,3.09,2.59,1.51,2.2-3.19,4.4-6.38,6.59-9.57l-2.74-1.16c-1.19,4.36-2.37,8.72-3.56,13.08-.34,1.24,1.08,2.39,2.2,1.69,4.47-2.76,7.72-7.14,9.02-12.24.48-1.87-2.42-2.67-2.89-.8h0Z"/>
    <path class="cls-3" d="m145.74,242.56c-5.37-2.77-11.06-5.68-14.91-10.5-4.37-5.48-4.56-12.65-4.66-19.34-.03-1.76-2.37-1.94-2.95-.4-2.78,7.47-1.83,15.57-.06,23.16.45,1.94.95,3.87,1.46,5.8.42,1.6.89,3.24,1.72,4.69,1.8,3.13,5.03,4.17,8.47,4.18,4.54.03,9.14-.74,13.49-1.97,1.18-.33,1.54-2.14.36-2.74-3.39-1.72-6.51-3.89-9.25-6.53-1.34-1.29-2.6-2.68-3.74-4.16-1.07-1.39-2.06-2.87-3.59-3.8-3.2-1.94-7.24-.21-7.37,3.7-.11,3.34,2.58,6.74,4.88,8.92,2.81,2.67,6.37,4.52,10.18,5.22,1.57.29,2.77-1.91,1.16-2.74-6.2-3.22-13.45-7.08-14.83-14.63l-2.89.8c1.26,3.71,2.48,7.44,3.78,11.14.95,2.69,3.16,5.91,6.49,4.65.69-.26,1.38-1.04,1.05-1.85-1.74-4.27-3.49-8.53-5.23-12.8l-2.51,1.46c4,3.61,8.49,6.66,13.36,8.95.55.26,1.12.49,1.67.76.18.09.4.27.59.33.1.05.17.12.23.21l.42-.38c-.01-.14-1.58-.92-1.79-1.06-.63-.41-1.26-.82-1.89-1.22-2.66-1.72-5.31-3.44-7.97-5.16-1.46-.94-2.98,1.15-1.82,2.36,4.17,4.3,9.62,6.94,15.55,7.71,1.32.17,1.94-1.74,1.06-2.56-8.45-7.92-14.38-18.2-16.99-29.48-.38-1.65-2.98-1.29-2.95.4.12,6.38,1.62,12.59,4.38,18.33l2.36-1.82c-3.67-3.85-5.68-8.96-5.65-14.27.01-1.99-2.76-1.85-3,0-.42,3.27,1.61,6.21,4.56,7.43,1.14.47,2.06-.86,1.85-1.85-1.07-4.96-2.14-9.91-3.21-14.87-.41-1.9-3.23-1.08-2.89.8l.82,4.51c.34,1.9,3.24,1.09,2.89-.8l-.82-4.51-2.89.8c1.07,4.96,2.14,9.91,3.21,14.87l1.85-1.85c-1.79-.75-2.59-2.72-2.36-4.54h-3c-.04,6.1,2.32,11.99,6.53,16.4,1.23,1.29,3.06-.34,2.36-1.82-2.53-5.26-3.86-10.99-3.97-16.82l-2.95.4c2.72,11.75,8.96,22.56,17.76,30.81l1.06-2.56c-5.11-.66-9.85-3.14-13.43-6.83l-1.82,2.36c3.35,2.17,6.71,4.35,10.06,6.52,1.27.83,2.82,1.86,4.36,1.01,1.27-.7,1.61-2.28,1.02-3.56-.62-1.36-2.02-1.86-3.29-2.45-1.59-.73-3.14-1.54-4.65-2.43-3.04-1.79-5.88-3.88-8.5-6.24-1-.9-3.12-.04-2.51,1.46,1.74,4.27,3.49,8.53,5.23,12.8l1.05-1.85c-2.37.89-3.23-3.82-3.72-5.27-.95-2.81-1.91-5.62-2.86-8.42-.63-1.84-3.24-1.09-2.89.8,1.53,8.33,9.32,12.84,16.21,16.42l1.16-2.74c-3.58-.66-6.85-2.36-9.39-4.97-1.21-1.24-2.32-2.72-3.02-4.32-.63-1.45-.68-4.01,1.6-3.42,1.73.45,2.78,2.39,3.81,3.71,1.19,1.52,2.48,2.95,3.87,4.28,2.88,2.75,6.17,5.05,9.71,6.85l.36-2.74c-4.28,1.21-8.84,2.02-13.31,1.85-2.01-.08-3.92-.59-5.07-2.37-1.01-1.55-1.39-3.45-1.85-5.22-2.25-8.61-4.38-17.78-1.16-26.44l-2.95-.4c.11,7.26.47,14.86,5.07,20.86,4.08,5.32,10.14,8.56,15.98,11.57,1.71.88,3.23-1.71,1.51-2.59h0Z"/>
    <path class="cls-3" d="m149.95,246.42l-5.28-4.33-1.82,2.36c2.06,1.47,4.13,2.94,6.19,4.4l1.51-2.59c-5.12-3.17-9.43-7.46-12.63-12.56l-2.59,1.51c.35.45.69.9,1.04,1.35l2.36-1.82c-2.31-2.55-4.61-5.1-6.92-7.65-1.31-1.45-3.33.66-2.12,2.12,6.73,8.14,14.87,15.07,23.96,20.45l1.16-2.74c-5.49-1.15-10.97-2.3-16.46-3.45-1.35-.28-2.67,1.45-1.46,2.51,4.07,3.55,9.49,5.31,14.87,4.6.81-.11,1.49-.61,1.5-1.5,0-.74-.7-1.59-1.5-1.5-6.58.73-13.15-.2-19.28-2.71l.66,2.51-1.06-.15c.98,1.66,3.57.16,2.59-1.51-.78-1.33-2.57-1.57-3.66-.46-.86.88-.36,2.09.66,2.51,6.33,2.6,13.27,3.57,20.08,2.82v-3c-4.59.61-9.24-.66-12.75-3.72l-1.46,2.51c5.49,1.15,10.97,2.3,16.46,3.45,1.62.34,2.67-1.84,1.16-2.74-8.89-5.26-16.77-12.02-23.35-19.98l-2.12,2.12c2.31,2.55,4.61,5.1,6.92,7.65,1.12,1.24,3.4-.45,2.36-1.82-.35-.45-.69-.9-1.04-1.35-1.14-1.48-3.65-.17-2.59,1.51,3.47,5.54,8.15,10.2,13.7,13.64,1.67,1.03,3.06-1.49,1.51-2.59-2.06-1.47-4.13-2.94-6.19-4.4-1.37-.98-3.14,1.27-1.82,2.36l5.28,4.33c1.48,1.22,3.62-.9,2.12-2.12h0Z"/>
    <path class="cls-3" d="m69.39,254.57l4.62-9.62c1.28-2.67,2.98-5.96.97-8.74-1.11-1.53-3.61-.17-2.59,1.51.9,1.48,1.3,3.21,1.05,4.93-.24,1.6-1.08,2.98-2.02,4.27-1.89,2.57-4.3,4.89-4.88,8.17-.22,1.22,1.01,2.43,2.2,1.69,6.54-4.01,10.65-11.43,10.53-19.12-.03-1.93-3.03-1.93-3,0,.11,6.63-3.39,13.05-9.04,16.53l2.2,1.69c.61-3.4,3.54-5.72,5.32-8.52,2.16-3.41,2.35-7.67.24-11.15l-2.59,1.51c.7.97.58,2.02.21,3.1-.46,1.36-1.2,2.65-1.82,3.94l-3.98,8.29c-.83,1.73,1.75,3.26,2.59,1.51h0Z"/>
    <path class="cls-3" d="m78.02,247.74c.88-1.6,2.28-2.82,3.28-4.34s1.64-3.6,1.04-5.47c-.46-1.44-2.42-1.4-2.89,0-1.55,4.55-4.3,8.6-7.89,11.78-1.27,1.12.39,3.29,1.82,2.36,5.05-3.29,8.77-8.43,10.24-14.3.47-1.87-2.42-2.67-2.89-.8-1.28,5.1-4.45,9.63-8.86,12.5l1.82,2.36c3.98-3.53,6.95-8.08,8.66-13.1h-2.89c.43,1.34-.32,2.66-1.12,3.7-.98,1.26-2.12,2.38-2.89,3.8-.93,1.7,1.66,3.21,2.59,1.51h0Z"/>
    <path class="cls-3" d="m113.55,239.29c2.07,5.68,6.72,10.13,12.53,11.86,1.59.47,2.71-1.99,1.16-2.74-6.14-2.96-10.75-8.51-12.45-15.11l-2.2,1.69c4.85,3.59,8.81,8.28,11.62,13.61l1.69-2.2c-2.23-.71-4.32-1.78-6.2-3.17-.84-.62-1.79-1.34-2.44-2.17-.08-.1-.18-.42-.27-.46.09.04-.54-.48-.11.17-.03-.05.58.2.56.19.84.64,1.38,1.83,1.99,2.67.71.98,1.46,1.93,2.24,2.85,1.6,1.87,3.35,3.6,5.23,5.18l1.06-2.56c-6.44-.17-12.38-4.81-14.14-11-.53-1.85-3.42-1.07-2.89.8,2.12,7.49,9.26,13,17.03,13.21,1.23.03,2.07-1.71,1.06-2.56-2.38-2-4.58-4.24-6.48-6.71-1.59-2.07-3.28-5.93-6.55-4.91-1.49.46-2.32,1.98-1.9,3.48s1.75,2.57,2.89,3.5c2.42,1.97,5.15,3.45,8.12,4.4,1.31.42,2.27-1.1,1.69-2.2-3.06-5.81-7.42-10.8-12.69-14.69-1.11-.82-2.51.53-2.2,1.69,1.89,7.29,7.04,13.63,13.83,16.9l1.16-2.74c-4.75-1.41-8.74-5.1-10.44-9.77-.28-.76-1.02-1.27-1.85-1.05-.73.2-1.33,1.08-1.05,1.85h0Z"/>
    <path class="cls-3" d="m101.52,236.02c2.15,6.27,6.12,11.66,11.42,15.62l1.51-2.59c-5.68-2.53-10.18-7.33-12.17-13.24-.63-1.87-3.16-1.08-2.89.8,1.02,7.05,5.54,13.42,11.79,16.81l-.3-2.36c-1.11,1.35-2.87,1.14-4.24.29-1.58-.99-2.74-2.64-3.55-4.29s-1.22-3.61-1.21-5.51-.09-3.7-1.76-4.89c-1.32-.94-2.67.83-2.05,2.05,1.08,2.15,2.16,4.29,3.25,6.44,1.02,2.03,1.97,4.14,3.16,6.08,2.1,3.43,6.05,6.24,10.11,4.23.78-.38.85-1.36.54-2.05-1.07-2.38-2.13-4.75-3.2-7.13-.33-.74-1.41-.92-2.05-.54-.76.44-.87,1.31-.54,2.05,1.07,2.38,2.13,4.75,3.2,7.13l.54-2.05c-1.28.63-2.84.12-3.93-.69-1.35-1.01-2.21-2.59-2.97-4.06-1.88-3.62-3.68-7.29-5.51-10.93l-2.05,2.05c.46.33.28,1.59.28,2.06-.01,1.13.07,2.24.28,3.35.42,2.24,1.39,4.41,2.76,6.23s3.07,3.4,5.27,3.96c2.04.53,4.42.01,5.8-1.66.59-.71.62-1.86-.3-2.36-5.65-3.05-9.5-8.67-10.41-15.01l-2.89.8c2.22,6.61,7.16,12.19,13.55,15.03,1.78.79,3.07-1.43,1.51-2.59-4.63-3.47-8.16-8.36-10.04-13.83-.62-1.82-3.52-1.04-2.89.8h0Z"/>
    <path class="cls-3" d="m84.52,249.57c1.4-2.35,2.85-4.68,4.19-7.07,1.21-2.17,1.89-4.67.6-6.97l-2.36,1.82c2.69,2.42,1.43,6.39-.57,8.81-2.6,3.15-6.27,5.19-8.83,8.38-.51.64-.61,1.5,0,2.12.54.55,1.59.6,2.12,0,3.29-3.72,6.63-7.4,9.87-11.17.66-.77,1.25-1.58,1.22-2.64-.02-1-.67-2-1.66-2.29s-2.14.22-2.69,1.11c-.63,1-.44,2.16-.05,3.21.67,1.79,3.57,1.02,2.89-.8-.07-.17-.13-.67-.24-.76-.19-.16-.11.1-.13.1h-.8c-.03-.35-.14-.49-.33-.44-.08.01-.12.07-.14.17-.21.09-.42.48-.57.65l-1.39,1.57c-.89,1-1.77,2-2.66,3.01-1.81,2.05-3.63,4.1-5.44,6.16l2.12,2.12c2.96-3.69,7.36-5.94,10-9.93,2.27-3.44,2.71-8.53-.6-11.5-1.25-1.12-3.21.29-2.36,1.82.96,1.72-.45,3.7-1.31,5.15-1.16,1.96-2.32,3.91-3.48,5.87-.99,1.66,1.61,3.18,2.59,1.51h0Z"/>
    <path class="cls-3" d="m59.04,252.97c3.41-.1,6.81-.18,10.22-.29,3.02-.09,6.04-.32,8.82-1.61,2.47-1.15,4.51-3.08,6.28-5.11,1.59-1.81,4.45-4.43,3.71-7.12s-3.82-3.12-5.42-.96c-.67.91-1.14,1.95-1.8,2.87-.78,1.09-1.72,2.08-2.72,2.97-3.62,3.19-8.94,5.2-13.79,4.4-1.31-.22-2.68-.66-3.65-1.6-1.04-1-1.27-2.47-1.99-3.67-1.33-2.22-4.84-3.41-6.43-.76-.9,1.5,1.12,2.94,2.36,1.82.87-.79,1.74-1.59,2.61-2.38l-2.51-1.46c-.29.9-1.22.66-1.43-.14-.38-1.51-2.43-1.34-2.89,0-.63,1.81-1.2,3.94-.22,5.75.81,1.49,2.52,2.6,4.25,2.14,1.84-.48,2.71-2.32,3.4-3.92.85-1.99,1.34-4.03,1.58-6.18l-2.95.4c.76,4.88,3.72,9.19,7.9,11.79.51.32,1.41.27,1.82-.23,1.7-2.1,2.33-4.77,1.49-7.37-.51-1.57-2.96-1.35-2.95.4l.03,4.12c0,1.18,1.26,1.82,2.26,1.3,2.88-1.51,4.66-4.53,4.65-7.77,0-1.41-1.59-1.84-2.56-1.06l-3.51,2.8,2.51,1.46.8-2.48-2.95-.4c.05,2.96.09,5.93.14,8.89.03,1.61,1.94,1.89,2.8.76,3.52-4.65,6.08-9.96,7.57-15.6.49-1.88-2.29-2.62-2.89-.8-.67,2.01-.03,4.07,1.22,5.7,1.37,1.78,3.35,2.77,5.26,3.85,3.67,2.08,5.97,5.82,5,10.13-.42,1.89,2.29,2.64,2.89.8,1.27-3.89,2.54-7.77,3.8-11.66l-2.74.36c.96,2.1,2.4,5.02,1.2,7.29-.84,1.59-3.07,2.6-4.06.59-.93-1.88-.54-4.41-.51-6.42.06-2.98.11-5.96.17-8.94.02-1.21-1.72-2.09-2.56-1.06-2.47,3.03-2.92,7.19-.97,10.62.5.88,1.65.93,2.36.3,1.72-1.52,1.85-4.36.11-5.92s-4.42-1.3-5.77.51c-1.27,1.7-1.04,4.22.32,5.81,1.63,1.91,4.32,2.18,6.64,1.71.92-.19,1.41-1.43.9-2.2-1.9-2.87-3.8-5.74-5.71-8.61-.74-1.11-2.3-.87-2.74.36-1.33,3.76-2.67,7.51-4,11.27-.44,1.24,1.13,2.36,2.2,1.69,1.8-1.12,3.94-1.54,6.01-.99,2.18.58,4.01,2.04,6.26,2.44,4.64.81,7.44-3.03,6.87-7.36-.26-1.93-.76-4.66-2.27-6.03-1.37-1.24-3.7-1.11-4.56.66s.94,3.68-.43,5.1c-1.49,1.54-4.21,1.53-6.09,2.41-3.99,1.86-6.55,6.11-6.56,10.47,0,.71.48,1.21,1.1,1.45,2.25.86,4.62-.27,6.16-1.96,1.71-1.88,2.22-4.37,3.58-6.45s3.92-2.49,6.23-1.78c2.57.8,4.58,2.85,6.47,4.67,1.31,1.27,2.99-.33,2.36-1.82-2.15-5.08-4.31-10.16-6.46-15.24-.68-1.61-3.13-.43-2.74,1.16,1.41,5.75,4.15,11.04,7.98,15.55l1.46-2.51c-4.06-1.16-7.11-4.92-7.33-9.15-.1-1.92-3.1-1.93-3,0,.29,5.58,4.15,10.5,9.53,12.04,1.53.44,2.38-1.42,1.46-2.51-3.49-4.12-5.93-8.99-7.21-14.23l-2.74,1.16c2.15,5.08,4.31,10.16,6.46,15.24l2.36-1.82c-3.68-3.56-8.66-7.59-14.09-5.22-2.45,1.07-3.66,3.33-4.69,5.66-.82,1.86-2.38,5.31-4.98,4.31l1.1,1.45c0-3.04,1.64-5.94,4.28-7.47,2.86-1.66,6.86-1.29,8.51-4.72.31-.64.48-1.36.44-2.07-.02-.5-.11-1.85-.43-2.24-.13-.16-.28-.1-.25.05,0,.01.25.27.28.31.2.29.28.68.38,1.01.3.95.6,1.93.73,2.92.18,1.41-.04,3.36-1.58,3.94-1.69.64-3.61-.52-5.07-1.22-3.63-1.74-7.53-1.98-11.05.2l2.2,1.69c1.33-3.76,2.67-7.51,4-11.27l-2.74.36c1.9,2.87,3.8,5.74,5.71,8.61l.9-2.2c-1.52.31-4.26-.04-3.99-2.19.22-1.83,2.93-.52,1.37.86l2.36.3c-1.24-2.17-1.1-5.02.5-6.98l-2.56-1.06c-.08,4.02-.26,8.06-.22,12.08.03,2.65.6,5.8,3.28,7.03s5.74-.5,7.01-2.97c1.72-3.33.15-7.06-1.28-10.17-.58-1.25-2.38-.76-2.74.36-1.27,3.89-2.54,7.77-3.8,11.66l2.89.8c.9-3.99-.25-8.31-3.18-11.22-1.55-1.53-3.53-2.41-5.36-3.52-1.68-1.02-3.67-2.77-2.95-4.95l-2.89-.8c-1.42,5.41-3.89,10.42-7.27,14.88l2.8.76c-.05-2.96-.09-5.93-.14-8.89-.03-1.72-2.43-2.01-2.95-.4l-.8,2.48c-.5,1.57,1.44,2.31,2.51,1.46,1.17-.93,2.34-1.87,3.51-2.8l-2.56-1.06c0,2.24-1.19,4.15-3.16,5.18l2.26,1.3-.03-4.12-2.95.4c.49,1.53.32,3.18-.72,4.46l1.82-.23c-3.57-2.22-5.87-5.86-6.52-10-.28-1.81-2.77-1.13-2.95.4-.25,2.21-.88,4.63-2.09,6.53-.5.78-1.13.85-1.55-.09-.46-1.04.18-2.45.52-3.44h-2.89c.96,3.79,6.04,3.76,7.21.14.48-1.5-1.46-2.42-2.51-1.46-.87.79-1.74,1.59-2.61,2.38l2.36,1.82c.32-.53,1.25.77,1.34.94.6,1.1.91,2.29,1.67,3.3,1.21,1.6,3.05,2.58,4.97,3.03,4.16.99,8.7.08,12.49-1.75s7.12-4.96,9.26-8.72c.1-.17.6-.97.54-.99-.24-.06.05.2.01.35-.09.33-.18.58-.36.88-.61,1.03-1.52,1.97-2.3,2.88-1.47,1.71-3.08,3.37-5.06,4.49-2.63,1.49-5.68,1.58-8.63,1.66-3.26.09-6.51.18-9.77.27-1.93.05-1.93,3.05,0,3h0Z"/>
    <path class="cls-3" d="m48.39,248.89l4.48-6.21c.46-.64.13-1.7-.54-2.05-.78-.41-1.56-.14-2.05.54l-4.48,6.21c-.46.64-.13,1.7.54,2.05.78.41,1.56.14,2.05-.54h0Z"/>
    <path class="cls-3" d="m92.16,249.99c.17-4.57,3.29-8.78,7.63-10.25l-1.85-1.05c1.4,3.64-2.23,7.16-5.77,5.13v2.59l6.33-4.75c1.06-.8.89-2.91-.76-2.8-7.42.53-14.84,1.06-22.26,1.58-1.94.14-1.92,2.83,0,3l3.78.33-1.06-2.56c-5.2,4.11-11.66,6.72-18.27,7.34-2.47.23-6.26.73-8.41-.9-1.22-.93-1.05-2.52-.26-3.69.95-1.41,2.6-2.22,4.05-3l-2.2-1.69c-.65,1.8-1.31,3.59-1.96,5.39-.37,1.02.81,2.25,1.85,1.85,14.97-5.89,30.66-9.91,46.63-11.85l-1.45-1.1c2.24,6.12,7.93,10.4,14.45,10.81,1.34.08,1.92-1.67,1.06-2.56l-5.55-5.75c-1.35-1.4-3.42.7-2.12,2.12l7.65,8.4,1.46-2.51c-2.61-.38-4.79-1.62-6.44-3.69-.92-1.16-3.03.09-2.51,1.46,1.52,3.99,5.12,6.69,9.4,6.95l-.76-2.8s.75-.07.34.12c.36-.17.59-.41,1.03-.52,1.2-.27,2.5-.26,3.72-.35,2.73-.22,5.46-.44,8.19-.65,1.37-.11,2.18-2.06.76-2.8-2.19-1.13-4.38-2.27-6.57-3.4-.95-.49-2.33.1-2.26,1.3.12,2,.32,4.22-.51,6.11-.6,1.35-1.92,2.72-3.53,2.48s-2.77-1.89-3.17-3.37c-.54-2-.23-4.14.02-6.16.23-1.91-2.77-1.89-3,0-.34,2.8-.62,5.76.62,8.39,1.01,2.14,3.04,3.92,5.47,4.13s4.5-1.25,5.75-3.19c1.59-2.48,1.51-5.57,1.34-8.39l-2.26,1.3c2.19,1.13,4.38,2.27,6.57,3.4l.76-2.8c-2.48.2-4.97.4-7.45.59-2.05.16-4.55,0-6.44.94-1.55.77-2.47,2.4-1.73,4.07.63,1.42,2.43,2.46,3.84,1.39,1.16-.89.82-2.7-.76-2.8-2.85-.17-5.49-2.07-6.5-4.75l-2.51,1.46c1.92,2.41,4.72,4.02,7.76,4.46,1.44.21,2.54-1.32,1.46-2.51l-7.65-8.4-2.12,2.12,5.55,5.75,1.06-2.56c-5.1-.32-9.8-3.81-11.56-8.61-.21-.56-.77-1.18-1.45-1.1-16.25,1.97-32.19,5.96-47.43,11.95l1.85,1.85c.65-1.8,1.31-3.59,1.96-5.39.47-1.3-1.13-2.27-2.2-1.69-3.32,1.79-7.47,4.93-5.86,9.31,1.33,3.62,5.78,4.07,9.07,4.03,8.48-.1,16.68-3.13,23.31-8.37,1.13-.89.08-2.46-1.06-2.56l-3.78-.33v3c7.42-.53,14.84-1.06,22.26-1.58l-.76-2.8c-2.11,1.58-4.22,3.16-6.33,4.75-.87.65-1.06,1.98,0,2.59,2.62,1.5,6,1.29,8.31-.73,2.16-1.88,2.89-5.15,1.87-7.8-.28-.72-1.01-1.33-1.85-1.05-5.64,1.9-9.61,7.18-9.83,13.14-.07,1.93,2.93,1.93,3,0h0Z"/>
    <circle class="cls-2" cx="55.18" cy="116.65" r="35.35"/>
    <circle class="cls-1" cx="29.24" cy="84.22" r="29.24"/>
    <circle class="cls-1" cx="91.41" cy="68.58" r="46.14"/>
    <circle class="cls-2" cx="98.24" cy="97.84" r="37.08"/>
    <circle class="cls-1" cx="138.45" cy="78.6" r="37.66"/>
    <circle class="cls-2" cx="41.91" cy="40.77" r="28.7"/>
    <circle class="cls-2" cx="119.98" cy="34.09" r="33.43"/>
    <circle class="cls-1" cx="81.54" cy="22.27" r="22.27"/>
    <circle class="cls-1" cx="65.96" cy="107.62" r="25.31"/>
    <circle class="cls-2" cx="142" cy="115.59" r="27.59"/>
    <circle class="cls-1" cx="59.27" cy="61.73" r="28.84"/>
    <polygon class="cls-4" points="74.23 146.42 65.96 252.11 70.09 235.31 76.37 144.95 74.23 146.42"/>
    <polygon class="cls-4" points="63.66 150.98 53.67 252.11 56.9 199.66 57.49 202.98 60.24 163.61 61.16 164.12 62.45 151.25 63.66 150.98"/>
    <polygon class="cls-4" points="88.63 138.82 86.45 253.39 88.63 252.93 89.99 140.42 88.63 138.82"/>
    <polygon class="cls-4" points="100.81 147.93 99.37 188.37 98.03 186.8 102.79 252.11 101.57 200.31 102.79 203.22 101.02 197.15 102.06 190.99 99.97 190.34 102.37 158.17 101.26 156.36 102.02 147.93 100.81 147.93"/>
    <circle class="cls-1" cx="112.05" cy="120.17" r="29.95"/>
    <polygon class="cls-4" points="112.05 150.12 116.58 201.61 115.08 200.97 121.58 249 119.16 198.36 118.33 198.98 118.18 178.84 117.43 176.99 116.82 159.82 114.85 155.29 113.71 150.07 112.05 150.12"/>
    <path d="m101.58,157.21c-1.24-4.65-6.8-6.04-10.86-7.13-5.13-1.38-10.3-1.32-14.56,2.19-3.44,2.84-5.55,7.13-6.79,11.34-1.55,5.26-2.1,10.95-.94,16.35.99,4.62,3.42,9.04,7.05,12.11,3.98,3.37,8.97,4.71,14.13,4.22s10.59-2.18,15.38-4.28c2-.88,3.91-2.08,5.24-3.85,1.56-2.07,1.9-4.62,1.5-7.14-.51-3.23-2.05-6.29-3.27-9.3-1.28-3.18-2.57-6.37-3.85-9.55-.61-1.52-1.22-3.03-1.83-4.55s-1.04-3.12-1.92-4.42c-.66-.99-1.7-1.71-2.92-1.65s-2.35.85-2.6,2.08c-.38,1.89,2.51,2.69,2.89.8-.1.51-.26,0-.11.12s.26.34.35.48c.25.42.41.9.59,1.34.49,1.21.98,2.43,1.47,3.64.95,2.35,1.9,4.7,2.84,7.05s1.83,4.55,2.75,6.82,1.94,4.48,2.5,6.83c.48,2.03.43,4.2-.95,5.87-1.15,1.4-2.86,2.28-4.51,2.96-4.04,1.67-8.5,3.11-12.85,3.66s-8.51-.12-12.01-2.7c-3.04-2.24-5.26-5.59-6.4-9.16-1.41-4.43-1.35-9.2-.43-13.72.77-3.78,2.06-7.58,4.4-10.7,2.83-3.76,6.88-5.34,11.53-4.52,2.44.43,4.93,1.16,7.24,2.07,1.71.67,3.54,1.65,4.04,3.54s3.39,1.07,2.89-.8h0Z"/>
    <path d="m86.68,155.68c0,6.36.01,12.72.02,19.07l2.56-1.06c-2.67-2.46-5.34-4.93-8.01-7.39-1.42-1.31-3.54.81-2.12,2.12,2.67,2.46,5.34,4.93,8.01,7.39.94.87,2.56.28,2.56-1.06,0-6.36-.01-12.72-.02-19.07,0-1.93-3-1.93-3,0h0Z"/>
    <path d="m95.49,159.59c1.93,0,1.93-3,0-3s-1.93,3,0,3h0Z"/>
    <path d="m100.44,167.2c1.93,0,1.93-3,0-3s-1.93,3,0,3h0Z"/>
    <path d="m103.05,175.89c1.93,0,1.93-3,0-3s-1.93,3,0,3h0Z"/>
    <path d="m104.17,183.11c1.93,0,1.93-3,0-3s-1.93,3,0,3h0Z"/>
    <path d="m95.29,189.55c1.93,0,1.93-3,0-3s-1.93,3,0,3h0Z"/>
    <path d="m86.58,190.25c1.93,0,1.93-3,0-3s-1.93,3,0,3h0Z"/>
    <path d="m81.02,185.83c1.93,0,1.93-3,0-3s-1.93,3,0,3h0Z"/>
    <path d="m74.8,178.01c1.93,0,1.93-3,0-3s-1.93,3,0,3h0Z"/>
    <path d="m75.14,166.32c1.93,0,1.93-3,0-3s-1.93,3,0,3h0Z"/>
    <path d="m80.62,159.7c1.93,0,1.93-3,0-3s-1.93,3,0,3h0Z"/>
    <path d="m78.75,204.59c1.63,7.26,3.89,14.37,6.75,21.24.31.75.99,1.27,1.85,1.05.71-.19,1.36-1.1,1.05-1.85-2.86-6.87-5.12-13.98-6.75-21.24-.42-1.88-3.32-1.09-2.89.8h0Z"/>
    <path d="m81.63,203.17c1.82.59,3.76.01,5.43-.12.76-.06,1.37-.1,2.03.2.36.16.58.52.72.95.07.23.03,0,.04.23,0,.16.01.33,0,.49-.02.34-.04.43-.16.84-.11.37-.14.44-.33.8-.16.28-.39.65-.55.86-.84,1.11-1.96,1.91-3.22,2.61-1.52.85-2.98,1.39-4.62,1.99-.76.28-1.27,1.02-1.05,1.85.2.73,1.08,1.33,1.85,1.05,3.33-1.21,6.96-2.58,9.23-5.45,1.17-1.48,2.05-3.33,1.83-5.26-.24-2.08-1.67-3.7-3.77-4.06-1.19-.2-2.33-.08-3.52.11-1.04.17-2.09.36-3.12.03-.77-.25-1.64.29-1.85,1.05-.22.81.27,1.59,1.05,1.85h0Z"/>
    <path d="m96.41,201.87l-.14,11.09c-.02,1.93,2.98,1.93,3,0l.14-11.09c.02-1.93-2.98-1.93-3,0h0Z"/>
    <path d="m97.18,204.29c2.21,4.07,4.42,8.14,6.63,12.21.92,1.7,3.51.18,2.59-1.51-2.21-4.07-4.42-8.14-6.63-12.21-.92-1.7-3.51-.18-2.59,1.51h0Z"/>
    <path d="m98.17,213.37h1.96c.39-.02.79-.18,1.06-.45.15-.14.25-.3.31-.48.09-.18.14-.37.13-.58-.02-.39-.14-.79-.44-1.06s-.66-.44-1.06-.44h-1.96c-.39.02-.79.18-1.06.45-.15.14-.25.3-.31.48-.09.18-.14.37-.13.58.02.39.14.79.44,1.06s.66.44,1.06.44h0Z"/>
    <path d="m103.78,200.39l6.33,2.54c.34.14.86.02,1.16-.15s.61-.54.69-.9c.2-.87-.27-1.53-1.05-1.85l-6.33-2.54c-.34-.14-.86-.02-1.16.15s-.61.54-.69.9c-.2.87.27,1.53,1.05,1.85h0Z"/>
    <path d="m108.68,195.97c-.9,5.46-.07,11.01,2.46,15.94.88,1.72,3.47.2,2.59-1.51-2.13-4.16-2.92-9.01-2.16-13.63.13-.8-.21-1.61-1.05-1.85-.72-.2-1.71.24-1.85,1.05h0Z"/>
    <path d="m94.41,228.23c1,1.33,2.07,2.6,3.26,3.78.57.56,1.15,1.1,1.76,1.61.64.54,1.3,1.12,2.06,1.49,1.64.8,3.84.64,4.81-1.11.81-1.48.27-3.39-.3-4.87-.68-1.75-1.66-3.32-2.96-4.68-.54-.57-1.58-.59-2.12,0s-.58,1.52,0,2.12c.63.66.91,1.02,1.37,1.77.41.66.72,1.32.92,1.87.14.39.26.78.36,1.19.04.15.06.29.1.44.03.18.03.19.01.03.01.1.02.19.02.29,0,.09,0,.19,0,.28.03-.17.03-.16,0,.01-.05.17-.05.18,0,.03-.09.15-.09.16,0,.03-.12.12-.12.12,0,0-.15.08-.15.09.01.02-.08.03-.16.05-.25.07.16-.01.19-.02.07-.01-.09,0-.52-.06-.19.02-.09-.02-.19-.04-.28-.07-.17-.06-.2-.07-.08-.02-.19-.09-.37-.2-.55-.32-.09-.06-.18-.12-.26-.18.09.07.07.06-.07-.06-.64-.51-1.26-1.06-1.85-1.62s-1.17-1.16-1.72-1.77-1.15-1.33-1.54-1.86c-.47-.63-1.32-1.01-2.05-.54-.62.4-1.04,1.38-.54,2.05h0Z"/>
    <path d="m105.04,220.46c1.05,4.61,3.35,8.88,6.56,12.35,1.32,1.42,3.43-.71,2.12-2.12-2.88-3.1-4.85-6.91-5.79-11.03-.18-.79-1.09-1.26-1.85-1.05-.81.22-1.23,1.05-1.05,1.85h0Z"/>
    <path d="m108.89,222.42c1.93,0,1.93-3,0-3s-1.93,3,0,3h0Z"/>
    <path d="m110.23,222.15c.26-.24.52-.49.79-.72.08-.07.16-.13.23-.19-.1.08-.08.07.06-.04.13-.08.25-.17.38-.25.05-.03.53-.28.32-.18.12-.05.25-.09.38-.12.09-.02.17-.04.26-.06-.18.02-.18.02,0,0,.13,0,.26,0,.4,0-.34-.02.15.05.24.07-.3-.09.03.03.11.07-.25-.14.11.1.17.19-.21-.26-.01.03.03.1-.17-.31.02.12.05.22.1.31.02-.21.01.1,0,.17,0,.34,0,.51,0,.3.05-.2-.03.18-.06.3-.14.59-.25.87-.02.06-.21.49-.08.21-.07.14-.13.29-.21.43-.15.28-.31.56-.48.82-.09.13-.18.26-.27.39-.1.14-.11.15-.01.02-.04.05-.09.11-.13.16-.2.24-.42.47-.65.69-.11.11-.23.22-.35.32-.04.03-.38.31-.27.23s-.25.17-.29.2c-.13.09-.27.17-.4.26-.29.18-.59.33-.9.47-.72.33-.95,1.42-.54,2.05.48.74,1.29.89,2.05.54,2.48-1.14,4.36-3.28,5.36-5.8.47-1.2.68-2.68.19-3.91-.61-1.53-2.07-2.48-3.74-2.39-1.85.1-3.24,1.22-4.54,2.43-.57.54-.58,1.59,0,2.12.62.56,1.51.57,2.12,0h0Z"/>
    <path d="m118.28,210.87l.36,5.92c.05.78.66,1.54,1.5,1.5.77-.03,1.55-.66,1.5-1.5l-.36-5.92c-.05-.78-.66-1.54-1.5-1.5-.77.03-1.55.66-1.5,1.5h0Z"/>
    <path d="m120.45,218.6c1.93,0,1.93-3,0-3s-1.93,3,0,3h0Z"/>
    <path d="m122.69,227.32c1.93,0,1.93-3,0-3s-1.93,3,0,3h0Z"/>
  </g>
</svg>