<?xml version="1.0" encoding="UTF-8"?>
<svg id="Layer_2" data-name="Layer 2" xmlns="http://www.w3.org/2000/svg" viewBox="0 0 91.65 133.62">
  <defs>
    <style>
      .cls-1, .cls-2, .cls-3 {
        stroke: #000;
        stroke-miterlimit: 10;
      }

      .cls-4 {
        fill: #0071bc;
      }

      .cls-5 {
        fill: red;
      }

      .cls-6 {
        fill: #c7b299;
      }

      .cls-2 {
        fill: #fff;
      }

      .cls-3 {
        fill: #e99c6d;
      }
    </style>
  </defs>
  <g id="Layer_1-2" data-name="Layer 1">
    <ellipse class="cls-3" cx="46.36" cy="51.57" rx="38.22" ry="35.55"/>
    <circle class="cls-2" cx="31.2" cy="50.02" r="12.44"/>
    <circle class="cls-2" cx="62.2" cy="50.02" r="12.44"/>
    <circle class="cls-1" cx="31.2" cy="50.02" r="4.49"/>
    <circle class="cls-1" cx="62.2" cy="50.02" r="4.49"/>
    <path d="m30.23,69.69c4.51,4.85,11.05,7.75,17.69,7.67s13.12-3.08,17.53-8.04c1.28-1.44-.84-3.57-2.12-2.12-3.9,4.39-9.51,7.09-15.41,7.16s-11.58-2.49-15.57-6.79c-1.32-1.42-3.44.71-2.12,2.12h0Z"/>
    <path class="cls-6" d="m12.68,43.8c1.39-9.95,6.54-19.03,14.39-25.3l-2.36-1.82c-4.05,8.5-8.1,17.01-12.15,25.51l2.8.76c.37-7.04,4.95-13.73,11.47-16.48l-1.9-1.45c-.41,4.67-1.94,9.13-4.4,13.11l2.74,1.16c2.16-6.01,4.33-12.02,6.49-18.03l-2.89-.8c-.76,2.95-1.52,5.89-2.28,8.84l2.95.4c.34-4.08.67-8.16,1.01-12.24l-2.95.4c1.71,6.07,3.42,12.14,5.13,18.21.41,1.45,2.47,1.41,2.89,0,2.22-7.29.22-15.44-5.04-20.93l-2.12,2.12c2.04,1.81,4.08,3.63,6.12,5.44,1.44,1.28,3.57-.83,2.12-2.12-2.04-1.81-4.08-3.63-6.12-5.44-1.44-1.28-3.47.72-2.12,2.12,4.54,4.74,6.17,11.74,4.27,18.01h2.89c-1.71-6.07-3.42-12.14-5.13-18.21-.48-1.7-2.81-1.24-2.95.4-.34,4.08-.67,8.16-1.01,12.24-.14,1.7,2.53,2.01,2.95.4.76-2.95,1.52-5.89,2.28-8.84.49-1.89-2.25-2.59-2.89-.8-2.16,6.01-4.33,12.02-6.49,18.03-.59,1.64,1.88,2.56,2.74,1.16,2.74-4.45,4.34-9.42,4.81-14.62.08-.89-1.04-1.81-1.9-1.45-7.82,3.3-13.23,10.86-13.67,19.37-.07,1.44,2.15,2.1,2.8.76,4.05-8.5,8.1-17.01,12.15-25.51.75-1.58-1.02-2.88-2.36-1.82-8.19,6.55-13.72,16.24-15.17,26.63-.26,1.89,2.63,2.7,2.89.8h0Z"/>
    <path class="cls-6" d="m84.83,41.1c-3.58-6.54-9.1-11.91-15.74-15.31-1.71-.88-3.17,1.57-1.51,2.59,3.46,2.14,5.54,5.95,5.49,10.01-.02,1.94,2.93,1.93,3,0,.2-5.93.41-11.87.61-17.8l-2.95.4c.96,4.79,1.92,9.57,2.88,14.36l2.89-.8c-3.07-7.77-8.76-14.29-16.15-18.22-1.7-.91-3.19,1.62-1.51,2.59,5.4,3.12,9.6,7.85,12.13,13.55l1.69-2.2c-8.9-2.08-16.8-7.56-21.79-15.24-.73-1.13-2.98-.83-2.8.76.76,6.48,2.74,12.69,5.95,18.37.69,1.22,2.96.77,2.8-.76-.6-5.61-1.2-11.23-1.8-16.84l-2.8.76c2.49,5.85,7.07,10.69,12.76,13.52,1.58.79,2.88-1.04,1.82-2.36-4.54-5.65-9.09-11.3-13.63-16.96-.67-.83-2.34-.41-2.51.66-.84,5.52-2.24,13.67-9.15,14.39-2.58.27-4.77-1.22-5.35-3.76s.45-5.41,2.04-7.47l-2.74-.36c1.29,5.3.41,10.89-2.4,15.56l2.74.36c-1.78-4.28-3.56-8.56-5.35-12.83-.5-1.2-2.58-1.63-2.89,0-.69,3.55-1.38,7.1-2.07,10.65h2.89c-1.54-5.83-1.15-12.09,1.23-17.64l-2.36.3c5.11,4.36,6.1,12.3,2.24,17.79l2.8.76c.34-3.96,1.65-7.79,3.76-11.15.93-1.49,5.55-8.13,7.21-4.27.57,1.33.4,2.96.09,4.33-.42,1.84-1.01,3.66-1.78,5.38-1.61,3.59-3.9,6.81-6.74,9.52l2.51,1.46c1.54-9.14,7.13-17.25,15.2-21.85l-2.2-.9c1,5.76-.12,12.55-5.42,15.91-2.15,1.36-4.67,1.88-7.14,1.15-2.31-.68-4.42-2.41-5.03-4.81s.47-5.28,3.2-5.42c2.54-.14,3.31,2.9,2.78,4.89-.71,2.67-3.15,5-5.19,6.74-.88.75-2.23,1.8-3.48,1.61-1.17-.18-1.59-1.36-1.69-2.39-.28-2.9.99-6.22,2.2-8.79,1.44-3.06,3.41-5.8,5.83-8.16l-2.56-1.06c.56,4.89,1.35,11.62-3.26,14.95-1.65,1.19-3.98,1.49-5.78.45-2.24-1.29-2.25-4.19-1.26-6.3,1.12-2.37,3.31-4.15,5.29-5.78s4.33-3.26,6.86-4.11c3.75-1.24,9.33-.56,10.83,3.76.9,2.6-.25,5.29-1.61,7.51s-3.13,4.35-4.88,6.33c-3,3.38-7.1,6.71-11.91,5.28-1.9-.57-3.46-1.99-3.74-4.02-.31-2.23.84-4.52,2.41-6.04,1.84-1.77,4.36-2.65,6.79-3.25,2.7-.66,5.52-1.12,8.3-1.2,4.53-.13,10.57,1.56,11.52,6.77s-4.32,8.92-8.84,9.77c-2.56.48-5.46.48-7.99-.15-2.28-.57-5.02-2.29-4.77-5.01.2-2.14,2.31-3.54,4.03-4.47,2.39-1.29,5.02-2.2,7.57-3.1,5.62-2,11.42-3.56,17.29-4.62,5.06-.91,11.13-1.45,15.29,2.23,1.62,1.43,2.84,3.38,2.87,5.6s-1.1,4.16-2.64,5.63c-4.13,3.94-10.2,3.43-15.3,2.05-10.84-2.94-21.17-8.37-30.15-15.05-1.23-.92-1.97-.67-3.38-.25-1.26.38-2.5.81-3.73,1.3-2.32.92-4.59,1.98-6.76,3.21-4.34,2.46-8.34,5.57-11.8,9.17-1.73,1.8-3.31,3.74-4.77,5.76l2.74.36c-1.07-4.67-2.43-10.59,1.16-14.57,2.91-3.23,7.83-2.26,10.2,1.14,2.78,3.98,1.34,9.43-1.36,13.04-1.46,1.95-3.33,3.59-5.3,5-1.68,1.2-3.99,3.06-6.2,2.48-4.55-1.21,2.09-9.18,3.45-10.91,2.81-3.58,6.03-6.84,9.56-9.71s7.41-5.33,11.5-7.34c2.06-1.01,4.17-1.9,6.33-2.65,2.44-.85,5.11-1.64,7.72-1.25,1.99.3,4.05,1.32,5.01,3.17,1.03,1.98.49,4.41-.59,6.25-1.22,2.08-3.2,3.61-5.17,4.94-2.12,1.42-4.28,2.84-6.57,3.99-4.1,2.05-9.85,2.81-12.64-1.68s-1.31-9.73.1-14.32c.6-1.94,1.14-4.41,2.85-5.71,1.61-1.23,3.71-.6,5.2.51,3.59,2.65,4.37,8.21,2.46,12.08s-6.32,6.11-10.42,5.01-6.87-5.19-6.05-9.36c.89-4.55,4.72-8.3,8.4-10.83s8.27-4.38,12.87-4.98c9.08-1.19,18.37,2.28,24.63,8.93,2.65,2.82,6.48,7.81,4.43,11.9-1.76,3.51-6.92,3.56-10.25,3.04s-8.44-2.73-5.86-6.83c1.31-2.07,3.78-2.84,6.05-3.3,2.51-.51,5.09-.81,7.66-.83,4.78-.03,9.62,1.2,12.88,4.91,2.86,3.26,3.41,7.81.77,11.37-2.79,3.76-7.67,4.92-12.08,3.83-4.72-1.16-8.48-4.5-11.12-8.47-1.32-1.99-2.61-4.17-3.14-6.52-.46-2.05-.08-4.65,1.97-5.71,1.92-1,4.38-.38,6.33.22,2.57.79,5.09,1.8,7.56,2.87s4.99,2.29,7.4,3.59c1.93,1.04,3.86,2.16,5.47,3.67,1.46,1.37,2.72,3.1,2.86,5.17s-.94,4.14-2.55,5.44c-3.58,2.89-8.95,1.46-11.75-1.8-2.52-2.93-3.33-7.45-1.77-11.02s5.53-6.24,9.54-6.39,7.89,2.34,9.83,5.9,1.56,7.82-.93,10.95c-1.17,1.47-2.8,2.59-4.66,2.92-2.43.43-4.88-.47-7-1.58-2.38-1.24-4.6-2.8-6.85-4.25-2.45-1.58-4.9-3.16-7.34-4.74-4.9-3.16-9.79-6.32-14.69-9.48s-9.51-6.14-14.27-9.21l-.36,2.74c7.88-2.75,16.51-2.88,24.45-.26,3.07,1.01,7.29,2.58,8.58,5.87s-1.68,6.26-4.71,6.89c-3.21.67-6.47-1.35-8.15-4-1.82-2.89-1.82-6.36-.13-9.31,3.74-6.53,12.45-7.02,17.93-2.4,3.2,2.7,5,6.77,5.3,10.9.13,1.9.13,4.11-.63,5.89-.28.64-.78,1.51-1.55,1.59-.32.03-1.26-.24-1.18-.64.38-1.88-2.51-2.69-2.89-.8-.42,2.1.98,3.85,3.01,4.32,2.15.5,4.09-.8,5.07-2.67,2.1-4.03,1.45-9.75-.18-13.82-1.82-4.53-5.23-8.1-9.81-9.86-4.26-1.65-9.27-1.38-13.12,1.18s-6.3,6.63-6.23,11.12,2.8,8.55,6.68,10.47,8.94,1.28,11.92-2.2,2.26-8.43-1.24-11.41c-4.27-3.63-10.46-5.12-15.9-5.76-6.05-.71-12.25,0-18,2-1.23.43-1.48,2.02-.36,2.74,12.1,7.81,24.2,15.63,36.3,23.44,4.85,3.13,10.63,7.69,16.81,5.98,4.81-1.33,7.92-6.09,8.36-10.89.47-5.13-2.61-10.18-6.95-12.76s-10.11-2.37-14.4.51-6.59,7.84-5.84,13.02,4.39,9.67,9.5,10.97c5.37,1.37,11.34-1.3,12.88-6.89s-2.66-9.97-6.98-12.69c-5.41-3.41-11.59-6.04-17.65-8.03-2.46-.81-5.29-1.44-7.84-.65-2.71.84-4.47,3.17-4.87,5.93s.64,5.68,1.97,8.19,3.1,5.06,5.18,7.14c4.15,4.15,10,6.73,15.93,5.79,5.16-.81,9.93-4.81,10.9-10.08s-2.17-10.48-6.61-13.33c-5.23-3.36-11.83-3.24-17.74-2.36-2.97.44-6.09,1.07-8.44,3.08-2,1.71-3.2,4.34-2.65,6.97,1.02,4.87,7.06,6.34,11.29,6.54,4.81.22,10.62-1.4,11.69-6.81s-2.99-10.94-6.74-14.53c-4-3.82-9-6.62-14.36-7.99-11.08-2.82-23.61.88-31.22,9.49-3.66,4.15-6.03,9.9-3.23,15.17,2.49,4.67,7.95,6.99,13.04,5.63,5.46-1.46,9.15-6.41,9.29-12.01.13-5.15-2.92-11.04-8.4-11.99-6.42-1.11-8.36,6-9.67,10.76-1.48,5.41-1.92,12.02,2.43,16.31s11.38,2.96,16.38.16,10.95-6.15,12.71-11.84c.78-2.52.59-5.37-.96-7.57s-4.08-3.48-6.69-3.85c-3.12-.45-6.24.34-9.17,1.37-2.7.95-5.33,2.09-7.87,3.4-9.92,5.11-18.52,12.94-24.46,22.39-1.41,2.24-2.77,5.16-1.59,7.79s4.05,3.32,6.57,2.73c2.83-.66,5.46-2.79,7.64-4.63s4.17-4.06,5.47-6.62c2.5-4.91,2.61-11.6-1.73-15.54-3.92-3.56-9.97-3.82-13.54.4-4.15,4.91-3.02,11.47-1.7,17.22.31,1.37,2.04,1.33,2.74.36,6.49-9.01,16.08-15.58,26.78-18.49l-1.16-.15c4.92,3.71,10.17,6.97,15.69,9.7s11.14,5.06,17.02,6.48,11.89,1.32,16.56-2.64c3.8-3.22,5.25-8.49,2.74-12.95-2.78-4.94-8.55-6.86-13.92-6.77-6.21.1-12.57,1.82-18.49,3.58-3.12.93-6.21,2-9.24,3.2-2.44.97-4.9,1.94-6.97,3.59-1.83,1.46-3.21,3.57-3.13,5.99.09,2.7,1.93,5.09,4.25,6.35,2.58,1.4,5.71,1.67,8.6,1.59s5.64-.62,8.17-1.9c4.57-2.31,7.98-7.82,6.2-12.97s-7.33-7.72-12.53-7.94c-3.04-.13-6.13.36-9.11.95-2.75.54-5.56,1.36-7.91,2.94-3.99,2.69-6.76,8.23-4.1,12.8,2.41,4.14,8.16,5.02,12.33,3.34,5.04-2.02,8.8-6.85,11.84-11.17s5.11-10.65.58-14.88c-3.75-3.5-9.23-3.6-13.74-1.66-2.7,1.16-5.08,2.94-7.31,4.83s-4.32,3.88-5.43,6.56c-.98,2.38-1.08,5.28.35,7.51,1.31,2.05,3.65,3.12,6.03,3.21,5.51.21,9.18-4.88,9.98-9.84.5-3.06.19-6.12-.16-9.18-.14-1.24-1.56-2.04-2.56-1.06-2.84,2.76-5.14,6.05-6.71,9.69-1.39,3.21-2.81,7.23-2,10.77.37,1.59,1.37,2.99,2.89,3.64,1.77.76,3.7.25,5.29-.7s3.04-2.4,4.34-3.8c1.37-1.47,2.6-3.08,3.31-4.98,1.1-2.97.38-6.91-2.49-8.62-3.13-1.86-7.23-.08-8.65,3.08-1.51,3.35-.39,7.34,2.25,9.78s6.09,3.35,9.48,2.79c4.04-.67,7.53-3.58,9.48-7.1,2.36-4.25,2.57-9.24,1.76-13.93-.17-.98-1.43-1.34-2.2-.9-8.68,4.95-14.91,13.79-16.58,23.65-.24,1.42,1.35,2.56,2.51,1.46,2.72-2.6,5.02-5.66,6.69-9.04,1.54-3.1,3.04-6.81,2.98-10.34-.06-2.98-1.65-6.32-5.1-6.12-3.72.2-6.53,4.37-8.27,7.24-2.27,3.75-3.57,7.96-3.95,12.31-.14,1.62,2.03,1.85,2.8.76,4.58-6.51,3.35-16.26-2.7-21.43-.65-.55-1.95-.66-2.36.3-2.71,6.33-3.29,13.29-1.53,19.95.36,1.37,2.6,1.49,2.89,0,.69-3.55,1.38-7.1,2.07-10.65h-2.89c1.78,4.28,3.56,8.56,5.35,12.83.48,1.14,2.02,1.56,2.74.36,3.22-5.36,4.18-11.8,2.7-17.87-.34-1.39-2.01-1.3-2.74-.36-2.09,2.7-3.11,6.41-2.34,9.78s3.75,5.85,7.27,5.99,7.06-1.88,9.13-4.71c2.52-3.45,3.26-7.78,3.89-11.91l-2.51.66c4.54,5.65,9.09,11.3,13.63,16.96l1.82-2.36c-5.29-2.64-9.37-7.01-11.68-12.44-.57-1.35-2.95-.68-2.8.76.6,5.61,1.2,11.23,1.8,16.84l2.8-.76c-2.93-5.2-4.84-10.93-5.54-16.86l-2.8.76c5.41,8.31,13.92,14.36,23.59,16.62,1.36.32,2.22-1.03,1.69-2.2-2.72-6.13-7.4-11.27-13.21-14.62l-1.51,2.59c6.67,3.55,12,9.38,14.78,16.43.7,1.78,3.28,1.13,2.89-.8-.96-4.79-1.92-9.57-2.88-14.36-.34-1.71-2.89-1.24-2.95.4-.2,5.93-.41,11.87-.61,17.8h3c.05-5.12-2.63-9.92-6.98-12.6l-1.51,2.59c6.22,3.18,11.31,8.11,14.66,14.23.93,1.69,3.52.18,2.59-1.51h0Z"/>
    <rect class="cls-5" x="23.69" y="87.12" width="44.26" height="25.53" rx="10.46" ry="10.46"/>
    <rect class="cls-5" x="18.75" y="93.83" width="5.72" height="23.17"/>
    <rect class="cls-5" x="68.11" y="93.83" width="5.72" height="23.17"/>
    <rect class="cls-4" x="31.3" y="112.65" width="12.34" height="19.17" transform="translate(66.14 -2.36) rotate(30)"/>
    <rect class="cls-4" x="49.17" y="112.65" width="12.34" height="19.17"/>
  </g>
</svg>