<?xml version="1.0" encoding="UTF-8"?>
<svg id="Layer_2" data-name="Layer 2" xmlns="http://www.w3.org/2000/svg" viewBox="0 0 193.95 144.72">
  <defs>
    <style>
      .cls-1 {
        fill: #603813;
      }

      .cls-1, .cls-2, .cls-3, .cls-4 {
        stroke: #000;
        stroke-miterlimit: 10;
        stroke-width: .25px;
      }

      .cls-2 {
        fill: #502d13;
      }

      .cls-3 {
        fill: #885b08;
      }

      .cls-4 {
        fill: #8c6239;
      }

      .cls-5 {
        fill: #aec9e9;
        font-family: Futura-CondensedBold, 'Futura Condensed';
        font-size: 26px;
        font-weight: 700;
      }
    </style>
  </defs>
  <g id="Layer_1-2" data-name="Layer 1">
    <path class="cls-1" d="m119.16,62.77v71.42c0,2.69-1.25,5.14-3.3,6.98-2.33,2.1-5.69,3.41-9.43,3.41s-7.1-1.31-9.43-3.41c-2.05-1.85-3.29-4.29-3.29-6.98V62.77s25.45,0,25.45,0Z"/>
    <path class="cls-2" d="m97,62.77v78.4c-2.05-1.85-3.29-4.29-3.29-6.98V62.77s3.29,0,3.29,0Z"/>
    <path class="cls-2" d="m119.16,62.77v71.42c0,2.69-1.25,5.14-3.3,6.98V62.77s3.3,0,3.3,0Z"/>
    <polygon class="cls-3" points="184.25 16.05 189.48 63.81 52.88 78.78 8.9 59.44 47.64 31.02 184.25 16.05"/>
    <polygon class="cls-1" points="189.48 63.81 193.82 52.8 188.11 .7 184.25 16.05 189.48 63.81"/>
    <polygon class="cls-1" points="188.11 .7 184.25 16.05 47.64 31.02 46.03 16.28 188.11 .7"/>
    <polygon class="cls-1" points="46.03 16.28 47.64 31.02 44.98 33.01 8.94 59.44 .17 47.47 36.2 21.05 46.03 16.28"/>
    <polygon class="cls-4" points="25.97 66.95 26.42 62.19 24.8 56.23 27.87 49.9 30.44 58.04 28.83 68.21 25.97 66.95"/>
    <polygon class="cls-4" points="49.41 30.83 48.68 40.41 47.06 61.66 49.07 53.91 51.54 30.59 49.41 30.83"/>
    <polygon class="cls-4" points="76.73 76.17 82.28 56.27 84.36 58.44 78.73 75.95 76.73 76.17"/>
    <polygon class="cls-4" points="117.15 23.4 116.89 34.43 111.7 32.43 113.5 32.04 117.15 23.4"/>
    <polygon class="cls-4" points="138.44 21.07 136.67 50.31 139.6 45.11 139.02 33.11 140.98 20.79 138.44 21.07"/>
    <polygon class="cls-4" points="157.14 67.36 161.21 49.15 159.21 46 162.14 47.52 161.37 57.25 157.14 67.36"/>
    <text class="cls-5" transform="translate(97.25 58.33) rotate(-6.74)"><tspan x="0" y="0">AKA</tspan></text>
    <path d="m154.13,41.78c4.44-.22,8.88-.21,13.32.05,2.55.15,8.26-.14,8.97,3.26.77,3.71-3.8,6.51-6.37,8.22-3.02,2.01-7.24,3.89-10.69,1.73-3.9-2.45-3.87-7.9-3.88-11.94,0-1.93-3.01-1.93-3,0,.01,4.73.26,10.17,4.08,13.55s8.86,2.66,12.94.5c2.15-1.14,4.18-2.64,6.05-4.2,1.73-1.45,3.27-3.29,3.77-5.54.46-2.12,0-4.38-1.59-5.92-1.44-1.38-3.43-1.96-5.35-2.24-5.98-.86-12.21-.77-18.22-.48-1.92.09-1.93,3.1,0,3h0Z"/>
    <path d="m156.97,31.16c1.93,0,1.93-3,0-3s-1.93,3,0,3h0Z"/>
    <path d="m173.27,31.25c1.93,0,1.93-3,0-3s-1.93,3,0,3h0Z"/>
  </g>
</svg>