<?xml version="1.0" encoding="UTF-8"?>
<svg id="Layer_2" data-name="Layer 2" xmlns="http://www.w3.org/2000/svg" viewBox="0 0 193.72 135.2">
  <defs>
    <style>
      .cls-1 {
        fill: #603813;
      }

      .cls-1, .cls-2, .cls-3, .cls-4 {
        stroke: #000;
        stroke-miterlimit: 10;
        stroke-width: .25px;
      }

      .cls-2 {
        fill: #502d13;
      }

      .cls-3 {
        fill: #885b08;
      }

      .cls-4 {
        fill: #8c6239;
      }

      .cls-5 {
        fill: #aec9e9;
        font-family: Futura-CondensedBold, 'Futura Condensed';
        font-size: 26px;
        font-weight: 700;
      }
    </style>
  </defs>
  <g id="Layer_1-2" data-name="Layer 1">
    <path class="cls-1" d="m125.11,52.38l6.42,71.13c.24,2.68-.78,5.23-2.66,7.25-2.13,2.3-5.36,3.91-9.09,4.25-3.72.34-7.19-.67-9.7-2.55-2.21-1.65-3.66-3.97-3.9-6.66l-6.42-71.13,25.35-2.29Z"/>
    <path class="cls-2" d="m103.04,54.38l7.05,78.09c-2.21-1.65-3.66-3.97-3.9-6.66l-6.42-71.13,3.28-.3Z"/>
    <path class="cls-2" d="m125.11,52.38l6.42,71.13c.24,2.68-.78,5.23-2.66,7.25l-7.05-78.09,3.29-.3Z"/>
    <polygon class="cls-3" points="185.05 15.93 188.96 63.82 51.99 75 8.56 54.44 48.08 27.11 185.05 15.93"/>
    <polygon class="cls-1" points="188.95 63.83 193.6 52.94 189.33 .7 185.05 15.93 188.95 63.83"/>
    <polygon class="cls-1" points="189.33 .7 185.05 15.93 48.08 27.11 46.88 12.33 189.33 .7"/>
    <polygon class="cls-1" points="46.88 12.33 48.08 27.11 45.36 29.03 8.6 54.44 .17 42.24 36.92 16.82 46.88 12.33"/>
    <polygon class="cls-4" points="25.42 62.42 26.01 57.68 24.54 51.67 27.8 45.43 30.14 53.64 28.25 63.76 25.42 62.42"/>
    <polygon class="cls-4" points="49.85 26.97 48.85 36.53 46.65 57.72 48.87 50.03 51.99 26.79 49.85 26.97"/>
    <polygon class="cls-4" points="75.9 73.05 82 53.31 84.02 55.53 77.91 72.89 75.9 73.05"/>
    <polygon class="cls-4" points="117.77 21.42 117.21 32.44 112.07 30.29 113.88 29.96 117.77 21.42"/>
    <polygon class="cls-4" points="139.12 19.68 136.54 48.86 139.61 43.74 139.37 31.74 141.67 19.47 139.12 19.68"/>
    <polygon class="cls-4" points="156.52 66.47 161.11 48.38 159.19 45.18 162.08 46.78 161.03 56.48 156.52 66.47"/>
    <text class="cls-5" transform="translate(81.64 57.14) rotate(-5.16)"><tspan x="0" y="0">BRIDGE</tspan></text>
    <path d="m48.42,40.92c-3.41-.32-6.91.14-10.1,1.39-2.53.99-6.95,2.91-6.05,6.39.35,1.35,1.57,2.28,2.88,2.6,1.55.38,2.97-.01,4.41-.58,1.31-.52,2.72-1.14,3.97-.18,1.09.83,1.56,2.24,1.35,3.57-.6,3.81-4.69,5.7-7.77,7.19-1.74.84-.22,3.43,1.51,2.59,2.96-1.43,5.97-3.01,7.84-5.83,1.69-2.56,2.08-5.99.18-8.55-.87-1.17-2.1-2.1-3.55-2.38-1.72-.34-3.24.3-4.81.9-.59.22-2.63.98-3.09,0-.38-.81,1.76-1.78,2.23-2.03,3.38-1.77,7.21-2.42,11-2.07,1.92.18,1.91-2.82,0-3h0Z"/>
    <path d="m52.24,42.42c2.28,2.36,4.56,4.73,6.85,7.09.55.57,1.58.59,2.12,0s.58-1.52,0-2.12c-2.28-2.36-4.56-4.73-6.85-7.09-.55-.57-1.58-.59-2.12,0s-.58,1.52,0,2.12h0Z"/>
    <path d="m65.33,38.18c-3.51,9.17-7.02,18.34-10.54,27.51-.69,1.8,2.21,2.59,2.89.8,3.51-9.17,7.02-18.34,10.54-27.51.69-1.8-2.21-2.59-2.89-.8h0Z"/>
    <path d="m78.22,38.81c-3.31-.31-7.12-.2-9.09,2.95s.33,5.85,2.51,7.99c4.31,4.24,5.61,11.08,2.94,16.56-.84,1.73,1.74,3.25,2.59,1.51,2.49-5.09,2.34-11.15-.34-16.15-.63-1.17-1.41-2.27-2.3-3.26-.95-1.05-2.38-1.97-2.96-3.3-.54-1.25.35-2.42,1.46-2.96,1.58-.77,3.51-.5,5.19-.34,1.92.18,1.91-2.82,0-3h0Z"/>
    <path d="m82.92,33.48c2.76,7.56,5.51,15.11,8.27,22.67.66,1.8,3.56,1.02,2.89-.8-2.76-7.56-5.51-15.11-8.27-22.67-.66-1.8-3.56-1.02-2.89.8h0Z"/>
    <path d="m77.27,33.39l13.53-.15c1.93-.02,1.93-3.02,0-3l-13.53.15c-1.93.02-1.93,3.02,0,3h0Z"/>
    <path d="m98.42,30.91c-.16,4.23-.33,8.46-.39,12.7-.06,3.77-.46,7.94.49,11.63.83,3.22,3.19,5.55,6.23,6.79,3.69,1.5,7.72,1.09,11.58.63,1.89-.23,1.92-3.23,0-3-3.38.41-6.98.9-10.25-.31-2.96-1.1-4.63-3.41-4.95-6.52-.35-3.44-.15-7-.08-10.45.08-3.82.22-7.64.37-11.45.07-1.93-2.93-1.93-3,0h0Z"/>
    <path d="m100.45,45.94l6.56.09c.78.01,1.54-.7,1.5-1.5s-.66-1.49-1.5-1.5l-6.56-.09c-.78-.01-1.54.7-1.5,1.5s.66,1.49,1.5,1.5h0Z"/>
    <path d="m100.68,29.95c3.83.05,7.65.11,11.48.16,1.93.03,1.93-2.97,0-3-3.83-.05-7.65-.11-11.48-.16-1.93-.03-1.93,2.97,0,3h0Z"/>
    <path d="m121.73,50.44c-.84-8.36-.16-16.77,2.04-24.88h-2.89c1.34,3.7,2.69,7.4,4.03,11.1.43,1.18,2.05,1.53,2.74.36,1.78-3.01,3.55-6.02,5.33-9.03l-2.74-.36c2.73,7.24,3.77,14.93,3.08,22.63-.17,1.92,2.83,1.91,3,0,.71-7.93-.38-15.97-3.19-23.43-.44-1.17-2.04-1.54-2.74-.36-1.78,3.01-3.55,6.02-5.33,9.03l2.74.36c-1.34-3.7-2.69-7.4-4.03-11.1-.48-1.33-2.48-1.51-2.89,0-2.27,8.35-3.01,17.07-2.15,25.68.19,1.9,3.19,1.92,3,0h0Z"/>
    <path d="m144.56,29.09v12.55c.02,3.77-.49,8.05.72,11.69,1,3,3.32,5.49,6.61,5.77,3.53.29,6.77-1.91,9.29-4.15,1.45-1.29-.68-3.4-2.12-2.12-1.93,1.72-4.75,3.82-7.51,3.2s-3.75-3.99-3.91-6.52c-.21-3.26-.06-6.56-.06-9.83,0-3.53,0-7.06-.01-10.58,0-1.93-3-1.93-3,0h0Z"/>
    <path d="m146.98,41.12c2.11.63,4.34.04,6.03-1.31s2.63-3.56,2.57-5.75c-.13-4.74-4.08-8.17-8.53-8.98-.8-.14-1.62.22-1.85,1.05-.2.73.25,1.7,1.05,1.85,2.96.54,5.97,2.44,6.3,5.69.15,1.45-.3,2.86-1.39,3.8-.97.83-2.25,1.12-3.39.77-1.85-.56-2.64,2.34-.8,2.89h0Z"/>
    <path d="m164.43,23.64c-.64,7.58.12,15.25,2.22,22.56.53,1.85,3.43,1.07,2.89-.8-2.03-7.08-2.73-14.43-2.11-21.77.16-1.92-2.84-1.91-3,0h0Z"/>
    <path d="m162.23,26.32c3.96.06,7.92.11,11.89.17,1.93.03,1.93-2.97,0-3-3.96-.06-7.92-.11-11.89-.17-1.93-.03-1.93,2.97,0,3h0Z"/>
  </g>
</svg>