<?xml version="1.0" encoding="UTF-8"?>
<svg id="Layer_2" data-name="Layer 2" xmlns="http://www.w3.org/2000/svg" viewBox="0 0 193.95 144.72">
  <defs>
    <style>
      .cls-1 {
        fill: #603813;
      }

      .cls-1, .cls-2, .cls-3, .cls-4 {
        stroke: #000;
        stroke-miterlimit: 10;
        stroke-width: .25px;
      }

      .cls-2 {
        fill: #502d13;
      }

      .cls-3 {
        fill: #885b08;
      }

      .cls-4 {
        fill: #8c6239;
      }

      .cls-5 {
        fill: #aec9e9;
        font-family: Futura-CondensedBold, 'Futura Condensed';
        font-size: 26px;
        font-weight: 700;
      }
    </style>
  </defs>
  <g id="Layer_1-2" data-name="Layer 1">
    <path class="cls-1" d="m74.79,62.77v71.42c0,2.69,1.25,5.14,3.3,6.98,2.33,2.1,5.69,3.41,9.43,3.41s7.1-1.31,9.43-3.41c2.05-1.85,3.29-4.29,3.29-6.98V62.77s-25.45,0-25.45,0Z"/>
    <path class="cls-2" d="m96.95,62.77v78.4c2.05-1.85,3.29-4.29,3.29-6.98V62.77s-3.29,0-3.29,0Z"/>
    <path class="cls-2" d="m74.79,62.77v71.42c0,2.69,1.25,5.14,3.3,6.98V62.77s-3.3,0-3.3,0Z"/>
    <polygon class="cls-3" points="9.7 16.05 4.47 63.81 141.07 78.78 185.05 59.44 146.3 31.02 9.7 16.05"/>
    <polygon class="cls-1" points="4.47 63.81 .13 52.8 5.84 .7 9.7 16.05 4.47 63.81"/>
    <polygon class="cls-1" points="5.84 .7 9.7 16.05 146.3 31.02 147.92 16.28 5.84 .7"/>
    <polygon class="cls-1" points="147.92 16.28 146.3 31.02 148.97 33.01 185.01 59.44 193.77 47.47 157.75 21.05 147.92 16.28"/>
    <polygon class="cls-4" points="167.97 66.95 167.52 62.19 169.15 56.23 166.07 49.9 163.51 58.04 165.11 68.21 167.97 66.95"/>
    <polygon class="cls-4" points="144.54 30.83 145.27 40.41 146.89 61.66 144.88 53.91 142.4 30.59 144.54 30.83"/>
    <polygon class="cls-4" points="117.22 76.17 111.67 56.27 109.59 58.44 115.22 75.95 117.22 76.17"/>
    <polygon class="cls-4" points="76.79 23.4 77.06 34.43 82.25 32.43 80.45 32.04 76.79 23.4"/>
    <polygon class="cls-4" points="55.51 21.07 57.28 50.31 54.35 45.11 54.93 33.11 52.96 20.79 55.51 21.07"/>
    <polygon class="cls-4" points="36.81 67.36 32.73 49.15 34.74 46 31.81 47.52 32.58 57.25 36.81 67.36"/>
    <text class="cls-5" transform="translate(37.94 51.7) rotate(6.25)"><tspan x="0" y="0">SCHOOL</tspan></text>
    <path d="m134,70.32c-.79-5.95-1.65-14.43,5.18-17.26,2.85-1.18,6.29-1.47,9.35-1.59s6.37.54,7.7,3.58c.77,1.76,3.36.24,2.59-1.51-1.52-3.47-5.34-4.94-8.9-5.07-2.08-.08-4.18.21-6.24.49-1.8.24-3.6.54-5.29,1.21-3.46,1.36-5.84,4.02-7.05,7.51-1.42,4.07-.89,8.46-.33,12.64.11.81.61,1.49,1.5,1.5.73,0,1.61-.7,1.5-1.5h0Z"/>
    <path d="m129.27,43.96c1.93,0,1.93-3,0-3s-1.93,3,0,3h0Z"/>
    <path d="m141.1,43.96c1.93,0,1.93-3,0-3s-1.93,3,0,3h0Z"/>
  </g>
</svg>