<?xml version="1.0" encoding="UTF-8"?>
<svg id="Layer_2" data-name="Layer 2" xmlns="http://www.w3.org/2000/svg" viewBox="0 0 472.17 83.26">
  <defs>
    <style>
      .cls-1 {
        fill: #fff;
      }
    </style>
  </defs>
  <g id="Layer_1-2" data-name="Layer 1">
    <rect y="41.47" width="472.17" height="23.95"/>
    <path d="m83.47,41.47C83.47,18.74,68.11.32,49.17.32S14.87,18.74,14.87,41.47s15.36,41.15,34.3,41.15,34.3-18.42,34.3-41.15m-8.71,0c0,.11,0,.21,0,.32,0,17.56-11.31,31.8-25.27,31.8s-25.27-14.24-25.27-31.8,11.31-31.8,25.27-31.8,25.13,14.07,25.27,31.48"/>
    <rect class="cls-1" x="72.73" y="29.8" width="10.74" height="11.67"/>
    <g>
      <path d="m161.32,42.11c0-22.73-15.36-41.15-34.3-41.15s-34.3,18.42-34.3,41.15,15.36,41.15,34.3,41.15,34.3-18.42,34.3-41.15m-8.71,0c0,.11,0,.21,0,.32,0,17.56-11.31,31.8-25.27,31.8s-25.27-14.24-25.27-31.8,11.31-31.8,25.27-31.8,25.13,14.07,25.27,31.48"/>
      <rect class="cls-1" x="150.58" y="30.44" width="10.74" height="11.67"/>
    </g>
    <g>
      <path d="m238.1,41.47c0-22.73-15.36-41.15-34.3-41.15s-34.3,18.42-34.3,41.15,15.36,41.15,34.3,41.15,34.3-18.42,34.3-41.15m-8.71,0c0,.11,0,.21,0,.32,0,17.56-11.31,31.8-25.27,31.8s-25.27-14.24-25.27-31.8,11.31-31.8,25.27-31.8,25.13,14.07,25.27,31.48"/>
      <rect class="cls-1" x="227.36" y="29.8" width="10.74" height="11.67"/>
    </g>
    <g>
      <path d="m314.73,41.79c0-22.73-15.36-41.15-34.3-41.15s-34.3,18.42-34.3,41.15,15.36,41.15,34.3,41.15,34.3-18.42,34.3-41.15m-8.71,0c0,.11,0,.21,0,.32,0,17.56-11.31,31.8-25.27,31.8s-25.27-14.24-25.27-31.8,11.31-31.8,25.27-31.8,25.13,14.07,25.27,31.48"/>
      <rect class="cls-1" x="303.98" y="30.12" width="10.74" height="11.67"/>
    </g>
    <g>
      <path d="m391.51,41.15C391.51,18.42,376.16,0,357.21,0s-34.3,18.42-34.3,41.15,15.36,41.15,34.3,41.15,34.3-18.42,34.3-41.15m-8.71,0c0,.11,0,.21,0,.32,0,17.56-11.31,31.8-25.27,31.8s-25.27-14.24-25.27-31.8,11.31-31.8,25.27-31.8,25.13,14.07,25.27,31.48"/>
      <rect class="cls-1" x="380.77" y="29.48" width="10.74" height="11.67"/>
    </g>
    <g>
      <path d="m469.36,41.15c0-22.73-15.36-41.15-34.3-41.15s-34.3,18.42-34.3,41.15,15.36,41.15,34.3,41.15,34.3-18.42,34.3-41.15m-8.71,0c0,.11,0,.21,0,.32,0,17.56-11.31,31.8-25.27,31.8s-25.27-14.24-25.27-31.8,11.31-31.8,25.27-31.8,25.13,14.07,25.27,31.48"/>
      <rect class="cls-1" x="458.62" y="29.48" width="10.74" height="11.67"/>
    </g>
  </g>
</svg>