<?xml version="1.0" encoding="UTF-8"?>
<svg id="Layer_2" data-name="Layer 2" xmlns="http://www.w3.org/2000/svg" xmlns:xlink="http://www.w3.org/1999/xlink" viewBox="0 0 361.97 207.3">
  <defs>
    <style>
      .cls-1 {
        fill: #999;
      }

      .cls-2 {
        fill: #666;
      }

      .cls-3 {
        fill: url(#linear-gradient-2);
      }

      .cls-3, .cls-4, .cls-5, .cls-6, .cls-7, .cls-8, .cls-9 {
        stroke: #000;
        stroke-miterlimit: 10;
      }

      .cls-4 {
        fill: url(#linear-gradient-4);
      }

      .cls-5 {
        fill: url(#linear-gradient-6);
      }

      .cls-6 {
        fill: url(#linear-gradient-7);
      }

      .cls-7 {
        fill: url(#linear-gradient-5);
      }

      .cls-8 {
        fill: url(#linear-gradient-3);
      }

      .cls-10 {
        font-family: ArialRoundedMTBold, 'Arial Rounded MT Bold';
        font-size: 37px;
      }

      .cls-9 {
        fill: url(#linear-gradient);
      }
    </style>
    <linearGradient id="linear-gradient" x1="170.26" y1="126.57" x2="191.71" y2="126.57" gradientUnits="userSpaceOnUse">
      <stop offset="0" stop-color="#d3a12a"/>
      <stop offset=".5" stop-color="#ffd955"/>
      <stop offset="1" stop-color="#d3a12a"/>
    </linearGradient>
    <linearGradient id="linear-gradient-2" x1="149.54" y1="141.9" x2="213.35" y2="141.9" xlink:href="#linear-gradient"/>
    <linearGradient id="linear-gradient-3" x1="132.17" y1="151.11" x2="229.8" y2="151.11" xlink:href="#linear-gradient"/>
    <linearGradient id="linear-gradient-4" x1="121.45" y1="160.31" x2="239.49" y2="160.31" xlink:href="#linear-gradient"/>
    <linearGradient id="linear-gradient-5" x1="98.73" y1="72.34" x2="153.46" y2="72.34" xlink:href="#linear-gradient"/>
    <linearGradient id="linear-gradient-6" x1="208.51" y1="72.34" x2="263.24" y2="72.34" xlink:href="#linear-gradient"/>
    <linearGradient id="linear-gradient-7" x1="126.09" y1="77.26" x2="235.88" y2="77.26" xlink:href="#linear-gradient"/>
  </defs>
  <g id="Layer_1-2" data-name="Layer 1">
    <rect class="cls-1" width="361.97" height="207.3"/>
    <path class="cls-2" d="m14.53,13.07v181.17h332.91V13.07H14.53Zm313.44,170.6H34.01V23.63h293.96v160.04Z"/>
    <rect class="cls-9" x="170.26" y="115.85" width="21.45" height="21.45"/>
    <rect class="cls-3" x="149.54" y="137.29" width="63.81" height="9.21"/>
    <rect class="cls-8" x="132.17" y="146.5" width="97.63" height="9.21"/>
    <rect class="cls-4" x="121.45" y="155.71" width="118.05" height="9.21"/>
    <path class="cls-7" d="m126.09,44.97c-15.11,0-27.36,12.25-27.36,27.36s12.25,27.36,27.36,27.36,27.36-12.25,27.36-27.36-12.25-27.36-27.36-27.36Zm0,46.17c-10.39,0-18.81-8.42-18.81-18.81s8.42-18.81,18.81-18.81,18.81,8.42,18.81,18.81-8.42,18.81-18.81,18.81Z"/>
    <path class="cls-5" d="m235.88,44.97c-15.11,0-27.36,12.25-27.36,27.36s12.25,27.36,27.36,27.36,27.36-12.25,27.36-27.36-12.25-27.36-27.36-27.36Zm0,46.17c-10.39,0-18.81-8.42-18.81-18.81s8.42-18.81,18.81-18.81,18.81,8.42,18.81,18.81-8.42,18.81-18.81,18.81Z"/>
    <path class="cls-6" d="m126.09,38.68h109.78v52.17c0,13.8-11.2,25-25,25h-59.78c-13.8,0-25-11.2-25-25v-52.17h0Z"/>
    <text class="cls-10" transform="translate(160.24 86.54)"><tspan x="0" y="0">#1</tspan></text>
  </g>
</svg>