<?xml version="1.0" encoding="UTF-8"?>
<svg id="Layer_2" data-name="Layer 2" xmlns="http://www.w3.org/2000/svg" viewBox="0 0 294.67 246.04">
  <defs>
    <style>
      .cls-1 {
        fill: #3fa9f5;
      }

      .cls-1, .cls-2 {
        stroke-width: 2px;
      }

      .cls-1, .cls-2, .cls-3, .cls-4 {
        stroke: #000;
        stroke-miterlimit: 10;
      }

      .cls-2 {
        stroke-linecap: round;
      }

      .cls-2, .cls-4 {
        fill: #b3b3b3;
      }

      .cls-3 {
        fill: #c1272d;
      }
    </style>
  </defs>
  <g id="Layer_1-2" data-name="Layer 1">
    <ellipse class="cls-1" cx="147.34" cy="154.85" rx="146.39" ry="90.1" transform="translate(-5.15 5.07) rotate(-1.94)"/>
    <ellipse class="cls-4" cx="186.19" cy="163.69" rx="64.93" ry="31.74"/>
    <polyline class="cls-4" points="251.11 163.69 251.11 88.97 185.58 88.97 185.58 163.69"/>
    <path class="cls-4" d="m251.11,88.96c0,17.53-29.34,31.74-65.54,31.74v-63.47c36.19,0,65.54,14.21,65.54,31.73Z"/>
    <ellipse class="cls-4" cx="197.38" cy="87.38" rx="39.65" ry="19.38"/>
    <polyline class="cls-4" points="157.73 87.38 157.73 41.75 237.03 41.75 237.03 87.38"/>
    <ellipse class="cls-4" cx="197.38" cy="41.75" rx="39.65" ry="19.38"/>
    <ellipse class="cls-4" cx="211.46" cy="38.46" rx="19.44" ry="9.5"/>
    <polyline class="cls-4" points="230.9 38.46 230.9 16.09 192.03 16.09 192.03 38.46"/>
    <ellipse class="cls-4" cx="211.46" cy="16.09" rx="19.44" ry="9.5"/>
    <ellipse class="cls-3" cx="218.81" cy="16.3" rx="9.64" ry="4.71"/>
    <polyline class="cls-3" points="228.45 16.3 228.45 5.21 209.18 5.21 209.18 16.3"/>
    <ellipse class="cls-3" cx="218.81" cy="5.21" rx="9.64" ry="4.71"/>
    <polyline class="cls-3" points="191.7 15.28 167.13 15.28 192 40.15"/>
    <line class="cls-2" x1="141.48" y1="154.31" x2="159.85" y2="95.51"/>
    <line class="cls-2" x1="152.5" y1="165.34" x2="168.43" y2="101.64"/>
    <line class="cls-2" x1="170.26" y1="167.18" x2="178.23" y2="105.31"/>
  </g>
</svg>