<?xml version="1.0" encoding="UTF-8"?>
<svg id="Layer_2" data-name="Layer 2" xmlns="http://www.w3.org/2000/svg" viewBox="0 0 1440 225.75">
  <defs>
    <style>
      .cls-1, .cls-2, .cls-3 {
        stroke-width: .5px;
      }

      .cls-1, .cls-2, .cls-3, .cls-4 {
        fill: #fff;
        stroke: #000;
        stroke-miterlimit: 10;
      }

      .cls-1, .cls-5 {
        opacity: .8;
      }

      .cls-6 {
        fill: #fcee4b;
      }

      .cls-7 {
        fill: #b4ad39;
      }

      .cls-8 {
        fill: #ddce43;
      }

      .cls-2 {
        font-family: Futura-CondensedExtraBold, Futura;
        font-size: 12.03px;
        font-weight: 700;
      }

      .cls-9 {
        letter-spacing: .02em;
      }

      .cls-10 {
        letter-spacing: 0em;
      }

      .cls-4 {
        stroke-width: 3px;
      }
    </style>
  </defs>
  <g id="Layer_1-2" data-name="Layer 1">
    <rect class="cls-6" x="0" y="120" width="1440" height="105.5"/>
    <text class="cls-2" transform="translate(694.01 146.54) rotate(.14) scale(2.24 1) skewX(-.22)"><tspan x="0" y="0">S</tspan><tspan class="cls-9" x="5.5" y="0">C</tspan><tspan x="11.76" y="0">HOOL OF E</tspan><tspan class="cls-10" x="65.37" y="0">N</tspan><tspan x="73.13" y="0">GINEERI</tspan><tspan class="cls-10" x="114.3" y="0">N</tspan><tspan x="122.06" y="0">G</tspan></text>
    <rect class="cls-1" x="764" y="169" width="68" height="56.5"/>
    <rect class="cls-1" x="839" y="169" width="68" height="56.5"/>
    <g class="cls-5">
      <rect class="cls-3" x="57" y="176.68" width="68" height="20.13"/>
      <rect class="cls-3" x="142" y="176.68" width="68" height="20.13"/>
    </g>
    <g class="cls-5">
      <rect class="cls-3" x="290" y="176.68" width="68" height="20.13"/>
      <rect class="cls-3" x="375" y="176.68" width="68" height="20.13"/>
    </g>
    <g class="cls-5">
      <rect class="cls-3" x="523" y="176.68" width="68" height="20.13"/>
      <rect class="cls-3" x="608" y="176.68" width="68" height="20.13"/>
    </g>
    <g class="cls-5">
      <rect class="cls-3" x="57" y="148.46" width="68" height="20.13"/>
      <rect class="cls-3" x="142" y="148.46" width="68" height="20.13"/>
    </g>
    <g class="cls-5">
      <rect class="cls-3" x="290" y="148.46" width="68" height="20.13"/>
      <rect class="cls-3" x="375" y="148.46" width="68" height="20.13"/>
    </g>
    <g class="cls-5">
      <rect class="cls-3" x="523" y="148.46" width="68" height="20.13"/>
      <rect class="cls-3" x="608" y="148.46" width="68" height="20.13"/>
    </g>
    <g class="cls-5">
      <rect class="cls-3" x="990" y="176.68" width="68" height="20.13"/>
      <rect class="cls-3" x="1075" y="176.68" width="68" height="20.13"/>
    </g>
    <g class="cls-5">
      <rect class="cls-3" x="1223" y="176.68" width="68" height="20.13"/>
      <rect class="cls-3" x="1308" y="176.68" width="68" height="20.13"/>
    </g>
    <g class="cls-5">
      <rect class="cls-3" x="990" y="148.46" width="68" height="20.13"/>
      <rect class="cls-3" x="1075" y="148.46" width="68" height="20.13"/>
    </g>
    <g class="cls-5">
      <rect class="cls-3" x="1223" y="148.46" width="68" height="20.13"/>
      <rect class="cls-3" x="1308" y="148.46" width="68" height="20.13"/>
    </g>
    <line class="cls-4" x1="824" y1="199.42" x2="809.19" y2="199.42"/>
    <line class="cls-4" x1="860" y1="199.42" x2="845.19" y2="199.42"/>
    <rect class="cls-7" y="60.5" width="1439" height="60"/>
    <rect class="cls-8" width="1439" height="64.73"/>
    <rect class="cls-6" x="215" y="26" width="308" height="99"/>
    <rect class="cls-6" x="682" y="26" width="308" height="99"/>
    <rect class="cls-6" x="1131" y="27" width="308" height="98"/>
    <rect class="cls-7" x="215" width="308" height="26.5"/>
    <rect class="cls-7" x="682" width="308" height="26.5"/>
    <rect class="cls-7" x="1131" width="308" height="26.5"/>
    <g class="cls-5">
      <rect class="cls-3" x="290.19" y="79.19" width="68" height="15.92"/>
      <rect class="cls-3" x="375.19" y="79.19" width="68" height="15.92"/>
    </g>
    <g class="cls-5">
      <rect class="cls-3" x="290.19" y="56.87" width="68" height="15.92"/>
      <rect class="cls-3" x="375.19" y="56.87" width="68" height="15.92"/>
    </g>
    <g class="cls-5">
      <rect class="cls-3" x="762.19" y="76.02" width="68" height="15.92"/>
      <rect class="cls-3" x="847.19" y="76.02" width="68" height="15.92"/>
    </g>
    <g class="cls-5">
      <rect class="cls-3" x="762.19" y="53.7" width="68" height="15.92"/>
      <rect class="cls-3" x="847.19" y="53.7" width="68" height="15.92"/>
    </g>
    <g class="cls-5">
      <rect class="cls-3" x="1223.19" y="82.35" width="68" height="15.92"/>
      <rect class="cls-3" x="1308.19" y="82.35" width="68" height="15.92"/>
    </g>
    <g class="cls-5">
      <rect class="cls-3" x="1223.19" y="60.03" width="68" height="15.92"/>
      <rect class="cls-3" x="1308.19" y="60.03" width="68" height="15.92"/>
    </g>
  </g>
</svg>