<?xml version="1.0" encoding="UTF-8"?>
<svg id="Layer_2" data-name="Layer 2" xmlns="http://www.w3.org/2000/svg" viewBox="0 0 193.08 138.16">
  <defs>
    <style>
      .cls-1 {
        fill: #603813;
      }

      .cls-1, .cls-2, .cls-3, .cls-4 {
        stroke: #000;
        stroke-miterlimit: 10;
        stroke-width: .25px;
      }

      .cls-2 {
        fill: #502d13;
      }

      .cls-3 {
        fill: #885b08;
      }

      .cls-4 {
        fill: #8c6239;
      }

      .cls-5 {
        fill: #aec9e9;
        font-family: Futura-CondensedExtraBold, Futura;
        font-size: 26px;
        font-weight: 700;
      }

      .cls-6 {
        letter-spacing: -.03em;
      }
    </style>
  </defs>
  <g id="Layer_1-2" data-name="Layer 1">
    <g>
      <path class="cls-1" d="m119.4,56.22v71.42c0,2.69-1.25,5.14-3.3,6.98-2.33,2.1-5.69,3.41-9.43,3.41-3.74,0-7.1-1.31-9.43-3.41-2.05-1.85-3.29-4.29-3.29-6.98V56.22s25.45,0,25.45,0Z"/>
      <path class="cls-2" d="m97.24,56.22v78.4c-2.05-1.85-3.29-4.29-3.29-6.98V56.22s3.29,0,3.29,0Z"/>
      <path class="cls-2" d="m119.4,56.22v71.42c0,2.69-1.25,5.14-3.3,6.98V56.22s3.3,0,3.3,0Z"/>
      <polygon class="cls-3" points="186.01 15.73 187.85 63.74 50.53 69 8.03 46.59 48.69 20.99 186.01 15.73"/>
      <polygon class="cls-1" points="187.85 63.75 192.95 53.07 190.95 .7 186.01 15.73 187.85 63.75"/>
      <polygon class="cls-1" points="190.95 .7 186.01 15.73 48.69 20.99 48.12 6.17 190.95 .7"/>
      <polygon class="cls-1" points="48.12 6.17 48.69 20.99 45.89 22.79 8.07 46.59 .17 34.04 37.98 10.23 48.12 6.17"/>
      <polygon class="cls-4" points="24.53 55.29 25.31 50.58 24.11 44.52 27.63 38.42 29.61 46.72 27.29 56.75 24.53 55.29"/>
      <polygon class="cls-4" points="50.46 20.92 49.05 30.43 45.93 51.51 48.49 43.93 52.61 20.84 50.46 20.92"/>
      <polygon class="cls-4" points="74.5 68.09 81.45 48.63 83.37 50.94 76.51 68.01 74.5 68.09"/>
      <polygon class="cls-4" points="118.56 18.31 117.52 29.3 112.48 26.93 114.3 26.68 118.56 18.31"/>
      <polygon class="cls-4" points="139.96 17.49 136.13 46.54 139.41 41.56 139.69 29.55 142.52 17.4 139.96 17.49"/>
      <polygon class="cls-4" points="155.33 64.99 160.69 47.11 158.92 43.83 161.73 45.55 160.27 55.21 155.33 64.99"/>
      <text class="cls-5" transform="translate(86.04 52.67) rotate(-2.68)"><tspan class="cls-6" x="0" y="0">P</tspan><tspan x="14.02" y="0">ARK</tspan></text>
    </g>
  </g>
</svg>