<?xml version="1.0" encoding="UTF-8"?>
<svg id="Layer_2" data-name="Layer 2" xmlns="http://www.w3.org/2000/svg" viewBox="0 0 412.53 129.31">
  <defs>
    <style>
      .cls-1 {
        fill: red;
      }

      .cls-2 {
        fill: #e5b299;
      }

      .cls-3 {
        fill: #c69c6d;
      }

      .cls-4 {
        fill: #dec224;
      }
    </style>
  </defs>
  <g id="Layer_1-2" data-name="Layer 1">
    <g>
      <rect class="cls-3" x="82.06" y=".5" width="329.98" height="128.31"/>
      <path d="m411.53,1v127.31H82.56V1h328.98m1-1H81.56v129.31h330.98V0h0Z"/>
    </g>
    <g>
      <ellipse class="cls-2" cx="45.31" cy="71.99" rx="44.81" ry="39.85"/>
      <path d="m45.31,32.64c24.43,0,44.31,17.65,44.31,39.35s-19.88,39.35-44.31,39.35S1,93.68,1,71.99s19.88-39.35,44.31-39.35m0-1C20.29,31.64,0,49.7,0,71.99s20.29,40.35,45.31,40.35,45.31-18.06,45.31-40.35-20.29-40.35-45.31-40.35h0Z"/>
    </g>
    <g>
      <rect class="cls-1" x=".5" y="105.91" width="89.62" height="22.9"/>
      <path d="m89.62,106.41v21.9H1v-21.9h88.62m1-1H0v23.9h90.62v-23.9h0Z"/>
    </g>
    <g>
      <ellipse class="cls-4" cx="45.31" cy="59.17" rx="44.81" ry="30.83"/>
      <path d="m45.31,28.84c24.43,0,44.31,13.6,44.31,30.33s-19.88,30.33-44.31,30.33S1,75.89,1,59.17s19.88-30.33,44.31-30.33m0-1C20.29,27.84,0,41.87,0,59.17s20.29,31.33,45.31,31.33,45.31-14.03,45.31-31.33-20.29-31.33-45.31-31.33h0Z"/>
    </g>
  </g>
</svg>