<?xml version="1.0" encoding="UTF-8"?>
<svg id="Layer_2" data-name="Layer 2" xmlns="http://www.w3.org/2000/svg" viewBox="0 0 178.86 129.72">
  <defs>
    <style>
      .cls-1, .cls-2 {
        fill: #fff;
      }

      .cls-2 {
        stroke: #000;
        stroke-miterlimit: 10;
      }
    </style>
  </defs>
  <g id="Layer_1-2" data-name="Layer 1">
    <g>
      <rect class="cls-1" x=".5" y=".5" width="177.86" height="121.75" rx="20.19" ry="20.19"/>
      <path d="m158.17,1c10.86,0,19.69,8.83,19.69,19.69v81.37c0,10.86-8.83,19.69-19.69,19.69H20.69c-10.86,0-19.69-8.83-19.69-19.69V20.69C1,9.83,9.83,1,20.69,1h137.48m0-1H20.69C9.26,0,0,9.26,0,20.69v81.37c0,11.43,9.26,20.69,20.69,20.69h137.48c11.43,0,20.69-9.26,20.69-20.69V20.69c0-11.43-9.26-20.69-20.69-20.69h0Z"/>
    </g>
    <path class="cls-2" d="m154.64,122.75c7.15,6.93,9.53,6.46,9.53,6.46,0,0-9.56-.49-14.76-3.23s-4.11-3.23-4.11-3.23h9.34Z"/>
  </g>
</svg>