<?xml version="1.0" encoding="UTF-8"?>
<svg id="Layer_2" data-name="Layer 2" xmlns="http://www.w3.org/2000/svg" viewBox="0 0 136.57 99.17">
  <defs>
    <style>
      .cls-1, .cls-2 {
        fill: #fff;
      }

      .cls-2 {
        stroke: #000;
        stroke-miterlimit: 10;
      }
    </style>
  </defs>
  <g id="Layer_1-2" data-name="Layer 1">
    <g>
      <rect class="cls-1" x=".5" y=".5" width="135.57" height="92.73" rx="20.19" ry="20.19"/>
      <path d="m115.88,1c10.86,0,19.69,8.83,19.69,19.69v52.35c0,10.86-8.83,19.69-19.69,19.69H20.69c-10.86,0-19.69-8.83-19.69-19.69V20.69C1,9.83,9.83,1,20.69,1h95.2m0-1H20.69C9.26,0,0,9.26,0,20.69v52.35c0,11.43,9.26,20.69,20.69,20.69h95.2c11.43,0,20.69-9.26,20.69-20.69V20.69c0-11.43-9.26-20.69-20.69-20.69h0Z"/>
    </g>
    <path class="cls-2" d="m18.49,93.73c-5.46,5.29-7.28,4.93-7.28,4.93,0,0,7.3-.38,11.27-2.46s3.14-2.47,3.14-2.47h-7.13Z"/>
  </g>
</svg>